<?xml version="1.0" encoding="UTF-8"?>
<svg width="400" height="500"  xmlns="http://www.w3.org/2000/svg">
<path d="M4 17.434v186.41c5 149.88 80 239.81 196 291.77 117-53.957 192-143.89 196-291.77V17.434H4z"/>
<path d="M5.746 3.994 5.707 4v208.32c-.157 11.123.483 22.277 1.705 33.371 9.505 71.992 37.185 128.35 78.936 172.17 2.35-11.237 8.923-21.712 18.316-28.324-.782-1.679-2.055-3.054-2.79-4.74-.124-1.944.49-3.914.413-5.846-.478-2.118-2.12-3.708-2.603-5.871-.84-3.695-3.96-5.606-7.293-6.775-3.694-.678-7.588-.523-11.334-.64.343-2.705.903-5.373 1.304-8.073-1.22-.885-2.59-2.159-4.101-2.43-2.432-.617-9.369-1.615-15.78-1.408 2.798-3.262 3.909-6.329 3.999-10.637-3.746-1.79-7.628-3.567-11.045-5.944-1.692-1.176-3.017-2.556-3.76-4.507 1.654-.581 3.85-1.007 5.115-2.28 2.286-2.809 2.487-6.595 1.098-9.863-1.395-3.145-3.069-6.232-5.692-8.525-3.674-3.197-8.078-4.735-11.902-7.842 4.205-.626 8.363-.685 11.533-3.934 1.854-1.6 1.824-3.888 2.74-6.226.647-1.692.137-3.365-.915-4.754-3.062-4.03-8.424-6.098-11.646-9.598 7.366-.035 8.335 1.903 14.947-.193 2.312-.607 3.417-3.398 4.205-5.407 2.7-7.673 5.294-15.757 6.775-24.34 1.301 4.181 2.414 7.005 2.268 11.63.673 7.681-.389 14.123.845 21.028.478 2.222 1.338 5.484 3.553 6.569 2.558.685 4.482.164 8.22-.174-4.624 4.747-6.317 9.84-6.38 16.568.019 2.325.388 5.03 2.441 6.477 2.08 1.46 5.382 1.287 7.823 1.5-.177 2.479-6.588 6.852-4.838 19.73.633 3.21 2.248 5.516 5.51 6.42.768-.684 1.537-1.66 2.52-2.014-.2 4.329.063 6.671 1.19 9.85 2.558 2.318 3.511 5.33 7.168 6.091 1.57.4 2.065.166 3.293-.79-.362-1.647-.493-3.385-1.01-4.987-.955-1.853-2.956-3.132-3.86-5.154-1.13-2.512-1.667-5.335-1.997-8.055a5.747 5.747 0 0 1 .35-2.79c1.666 1.06 3.177 2.216 5.115 2.745a78.503 78.503 0 0 1-1.61-9.584c-1.264-4.437-5.398-8.927-5.986-14.127.336-.49.73-.749 1.168-.768 2.403 1.285 3.94 3.17 6.82 3.584.253-3.385 1.804-6.651.622-9.765-1.912-6.53-6.13-11.27-8.307-17.672-.872-2.41-1.226-4.908-1.433-7.453l8.14 6.658c-.156-4.166.522-8.304-.75-12.127-1.04-4.438-2.016-9.079-1.978-13.645-.07-1.208 1.23-2.066 1.732-3.106-1.402-4.237-3.217-8.668-5.994-12.195-2.19 2.125-3.488 2.531-6.543 2.68-.569-1.344-1.008-2.654-1.273-4.088a86.58 86.58 0 0 1-4.696.065c-.316-1.79.937-2.998-.168-4.393-1.53-.736-3.54 1.286-4.851.498a24.226 24.226 0 0 1-.922-1.59c.67-.077 1.343-.158 2.014-.236-.116-1.64.33-3.922-.877-5.188-2.067 1.744-4.665 2.073-7.229 1.375.388-1.563.723-3.125.955-4.714-1.13-.923-1.762-2.248-3.15-2.57-.77-2.507-2.511-3.904-4.38-5.583a30.88 30.88 0 0 1 2.487-3.02c-1.602-.917-2.422-1.546-3.209-3.277 2.3-1.666 4.294-3.37 5.824-5.798-5.606-4.6-8.37-11.554-10.566-18.258-2.893-9.65-4.579-20.335-3.074-30.365.51-3.437 1.55-6.176 3.733-8.9.827 1.535-.425 2.652-.916 4.08.49-.905.76-1.808 1.806-2.227a7.5 7.5 0 0 1 .309 2.15c.201-1.33.056-2.175-.87-3.539.634-.065 1.267-.131 1.907-.19.95-1.587 1.55-4.305 3.183-5.222.026 2.099 1.15 1.943 2.635 2.77.29-.698.577-1.395.862-2.1l1.787.744c1.06-1.22 1.15-2.694 1.756-4.14 1.544 1.73 1.291 3.635 1.853 5.8.904-.912.72-2.655 1.035-3.85 1.337 2.339 1.564 5.024 3.018 7.297 1.524-2.06 1.289-5.095 2.129-7.511 0 0 1.623 2.7 2.197 4.625.878 2.77 1.907 4.859 4.885 5.783.02-.808.032-1.618.045-2.432-1.854-2.603-1.803-5.83.174-8.355.93 4.3 3.944 6.586 6.935 9.473.11-1.93.182-3.854.414-5.772 1.105.407 1.989 1.128 3.211.695 1.943-.794 3.546-2.63 4.592-4.412-.97-.943-2.183-1.697-3.242-2.549-8.838-6.966-17.73-13.182-20.244-15.52.84-2.436 3.616-2.412 5.392-3.813-.633-.297-1.268-.586-1.908-.877 2.066-.49 5.102-.639 6.588-2.31-2.668-.42-4.691.965-7.281 1.185-4.475.55-9.113.537-13.557 1.371-1.873.432-4.037.833-5.283 2.447-2.855 3.398-5.176 7.345-7.747 10.955-3.475 4.721-7.334 8.94-11.385 13.158-1.964 2.002-3.413 4.03-5.673 5.592.31-2.054.693-4.096 1.04-6.144-2.007.032-3.481-.7-5.167-1.656.355-.504.703-1.01 1.058-1.514a6.299 6.299 0 0 0-2.478.426c-.207.517-.252 1.104-.123 1.775-.937-.11-1.873-.198-2.809-.29.187-.84.374-1.682.555-2.522-1.557.4-3.12.785-4.696 1.09a38.69 38.69 0 0 0 .995-3.909 25.674 25.674 0 0 1-2.721-.26c-.517-.594-.646-1.483-.885-2.226 9.686-11.22 23.221-18.137 33.33-28.963 1.267-1.375 2.927-2.074 4.283-3.32-3.32.2-5.918 2.23-9.4 1.86l-.912-2.755c9.06-5.692 15.279-8.893 23.742-14.941 3.472-7.862 11.334-17.717 17.037-23.7 4.935-5.062 11.36-9.195 17.186-13.161 3.56-2.235 7.57-5.95 11.672-7.526.09-3.274.634-6.543 1.326-9.74 1.91-8.087 18.018-14.16 20.74-14.746a15.99 15.99 0 0 1 9.5.748c1.621.704 2.682 2.192 3.734 3.55 5.17-3.317 12.73-1.531 18.846-.401-1.977 1.453-4.031 2.122-5.568 3.853-1.73 1.95-2.653 4.67-4.113 6.873-3.578 5.587-8.327 9.834-10.477 16.363-1.983 6.342.317 13.344.117 19.945.168 4.418-1.513 8.816-2.863 13.008-3.197 9.36-8.378 17.813-16.328 23.86-8.707 6.593-20.09 10.075-30.707 12.052-1.44 2.084-2.187 3.75-3.952 5.48 3.916 2.099 7.36 4.74 10.855 7.47 5.94 2.51 10.393 7.628 16.678 10.709 2.63-1.318 4.239.555 6.532 1.537 1.428.723 2.796.517 4.32.375 2.003 2.022 3.578 4.268 4.553 6.955 2.687 7.034 4.731 15.476 4.478 22.865.084.517.38.924.885 1.24 1.84-18.113-4.282-21.435-5.067-30.46 3.563 4.443 4.984 8.976 6.108 14.046 1.86 8.643 2.575 18.12.6 26.795-.79 3.843-.815 8.002-2.05 11.658-.69 1.983-1.897 3.713-3.83 4.637-1.432.743-3.19.454-4.345 1.539 1.718 1.085 4.583.95 5.03 3.242-.589.38-1.169.758-1.757 1.146.7.633 1.395 1.272 2.086 1.915-.02 1.782.402 3.202 1.06 4.837-1.88 1.498-4.006 1.62-6.273 2.106.724 2.72 2.364 4.825 4.25 6.834-.53.51-1.026 1.428-1.77 1.621-1.413.556-2.208-.576-3.519-1.008-.142 1.576-.702 3.17.19 4.61.465 1.196 1.536 2.4.2 3.459-1.319.052-2.708-1.086-3.993-1.461-1.421.898-.607 1.415-.14 2.539.49.904.597 1.872.784 2.873-.646.13-1.295.24-1.941.336-1.214-.756-2.3-1.633-3.65-2.156.284 1.976.65 3.945.921 5.93-1.686-1.235-3.138-2.43-5.275-2.727.013 2.196-2.732 2.62-4.043 4.119-.33 1.829 1.293 4.537-1.459 4.898-1.175-.859-2.257-1.571-3.678-1.951l-.32 1.492c-.982.078-1.985.052-2.967.045.562 3.01.305 5.969-.031 8.979 1.466-.22 2.958-.892 4.418-.899.956.788 1.525 1.816 2.203 2.83-1.828 2.093-2.596 4.243-2.951 6.975-.64 5.077-1.74 10.575-1.307 15.645l.407.277c2.177-.872 4.27-1.964 6.453-2.836 1.277 3.918.616 5.934-1.157 9.242-.142 1.188-.072 2.397-.2 3.586-.556 1.97-2.066 3.804-2.55 5.858-.556 2.623-.099 5.51.211 8.144 1.9.032 3.799.052 5.698.084-2.958 6.272-4.508 13.306-5.535 20.133-.84 4.63 1.654 9.076 2.21 13.57.09 2.306-1.353 3.819-2.16 5.815-.116 3.177.434 6.431.932 9.564 2.77-.672 4.138-1.982 5.353-4.521 1.305-3.042 2.579-7 1.57-10.275-.47-2.222.016-2.847-.333-6.24 2.376 2.666 4.268 6.511 8.027 7.331 2.713.962 4.746-1.111 6.361-2.978 2.325-2.609 3.888-3.24 6.616-6.762 1.292 3.484 3.938 6.247 7.693 6.55 5.28-1.617 6.589-5.499 11.604-7.163-.484 5.05-1.535 7.674-1.303 11.721 3.61 2.274 8.855 1.776 13.02 2.506 2.223 3.617 4.115 7.221 4.735 11.49-.555.182-1.104.35-1.666.5-3.953-2.028-8.11-3.153-12.561-2.262-4.563 1.366-3.286 7.372-2.184 10.934-4.88-1.878-8.658-5.381-17.918-6.056l-.543 1.898s-.375 2.19.84 7.268c-4.295-3.074-10.722-4.633-15.69-2.41.71 1.68 1.37 3.326 1.603 5.148-4.03-3.31-13.12-4.07-14.266-3.178-.614 4.314-1.131 8.364.658 12.498 5.167-1.066 10.197-2.112 15.525-1.705 8.823.394 17.175 3.469 24.512 8.307 6.252-13.487 18.889-23.575 33.525-26.346-1.142-8.305 1.858-17.296-.282-25.443-.659-2.306-1.147-4.585-1.257-6.995-5.322-1.873-8.78-5.464-14.463-6.252-2.53.903-3.796 1.734-5.91 3.14-3.669-3.826-6.963-8.772-11.62-11.22-4.566-2.454-9.434-2.52-14.479-2.681.394-2.92 3.062-4.243 3.47-7.059.347-1.44-.45-2.308-.985-3.541-1.557-3.1-2.13-7.027-4.41-9.752-1.615-1.544-4.2-2.279-5.717-3.959-.555-.78-.749-1.836-1.065-2.727 3.187 1.003 5.803.654 7.092-.207 1.22-1.51 2.698-3.067 3.266-4.953.93-3.178 1.254-6.492.55-9.754-1.26-6.504-5.671-11.057-6.226-17.555 3.72.355 6.95 2.099 10.729 2.118 6.833-1.25.859-15.026-2.615-20.682-1.286-2.255-3.404-3.338-4.127-5.903 2.023.785 3.492 1.155 9.344 1.557 1.776-2.72 2.7-6.014 2.43-9.256-.673-5.806-1.486-11.316-3.766-16.748-.917-1.886-2.305-3.36-2.77-5.479 4.301.68 7.427 4.108 9.87 7.448 2.323 3.345 4.196 7.01 6.282 10.504 1.33 2.235 2.224 5.721 4.49 7.142 3.288 1.711 6.95.04 10.056-1.271.31 2.99-1.245 4.926-2.989 7.103-2.196 2.674-3.785 5.705-5.36 8.799-1.196 2.015-.396 4.857.179 6.975.35 1.105.886 2.294 2.275 2.08 3.152-.555 5.884-2.326 9.172-2.526-3.934 5.031-7.701 9.818-9.703 16.006-1.02 2.797-1.227 5.659-1.072 8.604.956-.822 2.287-1.366 6.187-1.434l-8.369 15.488c-1.189 2.661-1.667 5.476-1.977 8.356 1.37.426 3.03 1.731 4.25.427 1.834-1.518 3.081-1.867 5.465-2.093.35.569.697 1.143 1.053 1.71-2.287 3.754-4.098 9.096-2.871 13.437 1.15 3.282 3.723 4.004 6.3 5.806 1.525.885-.047 2.84 1.296 3.951 2.17 2.248 5.75 3.154 8.785 3.23 1.763-3.757 1.337-7.368.361-11.263-1.046-3.908-.67-8.087-2.299-11.672-1.71-4.024-3.61-7.856-3.623-12.338 1.421-.556 3.468-1.012 4.385-2.309 1.066-1.783 1.108-4.318 1.024-6.34-.246-3.694.372-7.29-.24-10.973-.596-4.134-.719-9.01-2.909-12.62-.775-1.357-1.125-2.766-1.338-4.303 1.182-.006 2.36-.012 3.541-.006-.187-3.19.788-7.144-1.027-9.856-2.093-4.29-3.78-8.797-5.336-13.312-.446-1.195-.626-2.331-.678-3.597 2 .573 4.69 1.151 7.377.775.42-1.467.122-2.79-.355-4.185-1.04-3.32-.234-6.35-.938-9.735-.71-3.404-2.183-6.667-2.951-10.05-.562-2.57-.46-5.13-.182-7.725 1.368.35 2.463 1.176 5.446 2.058.885-2.545-.013-6.748.226-9.467.407-4.999-1.123-9.378-1.517-14.248.155-1.627 1.499-2.906 1.53-4.656-2.021.485-4.044 1.726-6.11 1.791-2.003-.298-1.913-1.688-2.604-3.213-.93.407-1.788.55-2.582.434-.472-1.692-.563-3.496-.854-5.227-.859 1.143-1.653 2.436-2.693 3.424-1.253 1.105-2.907 1.17-4.477 1.467-1.24-3.41.027-6.15.957-9.393l-1.673.098c-1.602 1.918-3.21 3.623-5.793 4.088-.084-2.978.323-5.844.879-8.764-1.835.71-3.257 1.046-5.227.885-.84-2.861-.103-5.213.568-7.99-2.234-.317-4.468-.66-6.703-.989a19.986 19.986 0 0 1-.324-5.51c.155-1.491 1.72-1.64 2.785-2.331-1.492-1.072-4.445-.098-5.187-1.557.84-1.26 2.894-1.692 3.127-3.248-.071-1.731-.097-2.99.672-4.605-1.667-.665-2.546-.885-3.23-2.713 2.208-1.207 4.611-1.556 6.962-2.377-1.428-1.595-3.004-2.803-4.031-4.721-3.03-5.368-4.495-11.744-4.973-17.848-.29-3.055.05-6.058.846-9.01.956-3.746.06-8.078 1.191-11.729.974-2.577 4.461-3.916 7.006-4.148l-.078 1.312c-.6-.129-1.202-.263-1.803-.392a86.798 86.798 0 0 0-.49 5.494c2.086-.801 3.074-3.763 4.256-5.533 1.098-2.306 3.844-1.854 4.678-4.457.885-1.81.492-5.104 2.088-6.305.27 3.223.146 6.342 1.18 9.455 2.454-2.758.452-7.026 2.894-10.133.536 1.79.923 3.642 1.543 5.406.4.342.875.615 1.424.828l.779-1.947c.73.756 1.376 1.551 1.976 2.416 2.823-.516 2.395-2.524 3.358-4.656l.736.04c1.066 1.395 1.902 2.945 2.942 4.36.807-1.777 1.316-3.643 1.865-5.51 1.68.995 1.924 2.39 2.402 4.14 1.202-.866 1.46-1.853 1.893-3.216 1.214.671 1.79 1.36 2.48 2.555-.542.388-1.092.784-1.629 1.184l1.176-.557c.188.614.382 1.228.57 1.848.187-.904.619-1.68 1.02-2.5.097-1.473-.333-5.34 1.068-6.256.924 1.26 1.975 5.553 3.221 6.502.104-1.608.071-3.14-.289-4.715.684.007 1.36.028 2.045.041a5.31 5.31 0 0 0 1.611 1.67c.477-1.563-.047-1.916 1.84-1.71 1.582 1.62 2.103 3.501 4.59 4.108 1.298-.86 1.886-3.262 2.629-4.65 1.809 1.085.48-2.247 1.707-3.461.717.626 2.881 3.615 3.773 3.963 1.42 2.668 5.198 3.056 7.834 3.69l-.135-2.008c1.188.517 2.034.975 2.842 2.015 3.546-.55 4.294 2.226 6.342 4.299l.898-5.7c1.195 1.009 2.279 6.942 2.815 8.356 4.05 1.924 5.374 5.716 7.22 9.5 3.58 8.5 5.453 18.48 3.657 27.613-.736 7.61-6.165 11.728-10.768 16.762 1.395.962 2.802 1.678 3.603 3.266-.395.83-.77 1.671-1.123 2.521 1.556.853 3.035 1.557 3.713 3.327-.426 4.237-4.926 1.29-7.176.627.02.58.046 1.162.065 1.75 2.668 2.203 4.554 5.148 4.974 8.623l-8.119-1.739c0 2.125 2.9 4.657 2.35 6.873-4.235-.57-6.535-.699-6.535-.699s1.11 2.765 1.744 4.121c-1.027.265-1.701.918-2.721.201-1.44-1.008-2.653-2.332-4.016-3.437.02.575.06 1.156.112 1.73 1.808 2.042 3.079 4.353 4.539 6.633-2.773-.338-1.867-.962-9.17-3.732l.584 9.763c-1.925-.51-2.854-1.217-4.094-2.625-.084 1.686.356 3.631-.174 5.246-.723 1.44-2.01 1.304-3.379 1.627-1.389-2.674-2.61-5.562-5.193-7.293.058 1.653-.347 3.1.629 4.541 1.602 2.564 1.276 5.697 1.328 8.584-1.02.982-2.067 1.68-2.422 3.147.13 1.337 1.034 2.517 1.17 3.879.51 5.226-.78 10.022-1.193 15.014l5.902-1.059c-2.21 2.674-3.643 8.485-4.309 11.844-.95 5.102-1.104 10.276-1.142 15.45.82-.02 6.019-.052 6.832-.007-4.328 6.388-5.87 13.326-6.89 20.25-.453.142-.899.278-1.345.42 1.99 3.78.264 8.622-.142 12.691 2.53-.73 4.01-2.7 6.814-2.68-.9 3.609-1.077 4.12-1.918 6.303-1.809 5.432-1.06 11.47-2.049 17.025-.317 1.776-1.478 6.034-1.226 7.823.466-.237 2.48-1.23 3.627-1.735-.458 7.215-2.73 17.758-5.17 24.54 1.214.71 2.345 1.133 2.713 2.644.459 2.009-.427 4.345-.653 6.379 1.886-.535 3.9-.985 5.65-1.883 2.275-2.37 3.915-5.034 4.225-8.38-.827-1.414-1.388-2.768-1.607-4.403 1.136.077 2.642-.233 7.84-.143.602-10.94-5.27-19.55-5.426-22.135 2.275 0 10.297 3.494 10.297 3.494.116-4.83.485-9.875-2.777-13.834-3.106-3.772-6.685-6.176-7.338-11.459l8.72.445c-.22-2.04-.368-3.965-1.15-5.884-1.226-3.126-3.714-5.838-5.47-8.764-2.087-3.352-3.12-7.235-3.153-11.168a16.044 16.044 0 0 1 3.732-.768c1.311 2.335 4.974 5.924 5.801 4.217 2.953-6.459 6.467-12.699 9.037-19.314.778-3.303 3.25-9.919 6.575-15.459 1.129 5.422-1.471 23.445-1.502 29.037.368 2.306 1 5.265 3.337 6.383 2.15.84 4.677.903 6.95 1.213-5.122 4.747-3.584 11.729-3.584 11.729.655 10.37 4.984 11.952 13.299 13.947-3.12 4.244-8.1 7.717-9.98 12.607-1.434 3.533-.085 6.68 1.374 9.902 1.706 3.384 4.511 5.74 7.754 7.588-5.676.73-8.003-.22-11.33.776-3.126.936-4.791 3.919-5.023 7.492-.278 5.109 3.508 8.586 6.045 13.332-3.508-.517-7.18-3.47-10.711-2.487-2.135.595-4.062 2.536-4.768 4.637-1.085 3.23.86 6.737 1.537 10.102l-6.44-1.724c-2.33-.503-5.05-.524-7.245.503-3.668 1.693-6.123 4.71-9.915 6.305-1.563.704-3.164.866-4.843 1.092.245 6.846.702 13.674 1.148 20.508.233 3.287.587 6.394.535 9.656 13.222 3.417 24.747 12.091 30.877 24.395.374.465.794 2.132 1.576 1.31 6.485-4.164 13.724-6.974 21.43-7.71 9.597-1.046 19.274 1.15 27.697 5.806-2.358-4.308-3.12-9.992-7.13-13.268-3.017-1.905-7.893-.87-11.252-.49-2.183 2.551-4.633 4.715-7.971 5.6 1.492-3.837 2.345-7.653 1.389-11.748-.71-2.83-3.171-5.162-5.936-5.944-1.68.032-3.372.602-5.006.983a168.29 168.29 0 0 1-2.977 4.482c-.184-2.53-1.086-3.935-1.377-6.492-.484-1.447-.761-3.217-1.97-4.166-1.417-1.114-3.626-1.799-5.295-1.09-1.593.676-2.164 2.636-3.43 3.81-.62-3.583-.95-5.404-2.178-8.08-1.033-1.013-2.912-1.203-4.275-1.435-3.469-.569-6.79-.141-10.264-.11-.002-.28 3.43-12.09 9.625-11.243 3.456.174 6.89.626 10.34.86.981-.015 1.853.32 2.35-.77-.088-2.301-.504-4.18-.084-6.168 4.276 2.196 10.489 6.403 12.79 5.683 2.828-.884 2.679-4.633 4.96-7.369 1.53 4.115 2.833 7.716 5.875 10.971 1.473 1.705 3.161 4.064 5.273 4.588 1.266-2.216 1.85-4.32 4.691-4.83.478 4.708.179 10.07 1.872 14.514 1.22 3.068 3.462 4.914 6.736 5.412-1.06-4.14-2.669-8.074-3.27-12.357.827-1.046 2.442-1.814 2.778-3.13.788-3.23.013-6.97-.97-10.097-1.433-2.693-3.925-4.224-4.513-7.467 2.106-1.09 3.451-1.104 5.79-.736-.014-1.873-.022-3.746-.055-5.62-2.461-3.216-4.152-7.156-5.489-10.96-.6-1.983-1.344-3.817-.847-5.91 1.957.194 3.91.433 5.86.672.524-1.64 1.445-3.372 1.019-5.116-.491-2.35-1.531-4.61-2.416-6.84-1.59-3.855-4.288-7.783-5.012-11.872-.245-1.75-.523-3.422.543-4.979 1.763 2.28 3.41 3.933 6.406 4.34-.135-2.887.157-5.846-.16-8.707-1.59-4.915-2.493-10.075-2.945-15.217-.194-1.408 1.911-2.357 1.886-3.85.077-.98.05-1.945.031-2.933-1.595-1.098-2.815-2.162-3.351-4.106-.762-2.216-1.311-3.444-3.629-4.328-1.577 2.254-2.927 3.669-5.678 4.385-.252-2.35-.194-4.45-1.926-6.278-1.014 1.35-1.62 2.796-3.388 3.274-.918.265-2.432.544-2.91-.535-.62-3.275-.618-6.615-1.399-9.877-1.757.245-3.619.594-5.389.523-.917-.426-1.627-1.316-2.363-1.988.665-2.37 1.409-4.723 2.067-7.1-1.796-1.007-2.945-1.807-3.094-4.029.575-1.285 1.976-2.106 2.55-3.424.337-.904.426-1.917.588-2.867-2.66-1.395-5.056-2.688-5.722-5.89.446-.325.898-.64 1.344-.964.62-2.268-1.15-2.784-2.248-4.418-3.294-4.328-5.646-9.547-7.565-14.61-1.066-3.037-2.202-5.858-2.111-9.126-.039-3.817 1.396-7.268 1.602-10.994.026-.846-.336-1.686-.594-2.486-1.19 2.544-1.724 5.366-3.03 7.834.247-4.325 1.374-8.854 2.57-13.078 1.3-4.25 2.804-8.526 4.903-12.453.993-2.304 2.511-3.779 4.574-5.043l-.685 1.877c-1.738 6.232-6.484 10.317-5.889 17.473 1.95-2.506 2.09-5.438 3.666-8.139 1.26-2.157 2.68-4.23 4.057-6.316.284-.6 2.435-2.74 2.968-2.666l-3.763 13.322 1.136-.309c1.22-2.713 1.765-5.478 3.567-7.945.904.032 2.177.752 2.861-.068 1.576-1.673 2.499-3.73 4.43-5.106.568.278 1.57 1.686 2.074.575 1.04-2.04 1.26-4.36 3.514-5.514 3.746-1.744 8.777-.312 12.523-1.674 1.79-1.402 3.27-3.216 4.916-4.785 2.119-2.222 4.619-3.419 7.17-5.098 3.624-2.319 7.601-4.941 10.34-8.287.982-1.15 1.448-2.505 1.97-3.894-2.886-1.97-5.76-3.67-9.273-4.217a676.382 676.382 0 0 1-.066-3.489c-4.16-.749-8.159-1.206-12.117-2.794-4.935-1.983-9.559-4.936-13.73-8.223-3.572-3.068-6.622-6.88-9.393-10.664-4.554-6.007-8.92-12.183-10.684-19.637-1.117-6.13.42-12.938-1.098-19.016-1.169-4.386-5.044-8.131-8.693-10.62-3.358-2.136-6.55-4.32-10.457-5.321 1.537-1.945 3.448-3.461 5.922-3.965 3.604-.775 6.904.542 10.348.361 3.5-.278 5.142-2.933 8.398-3.953 7.182-2.332 15.12.194 20.37 5.406 3.184 3.346 4.496 7.713 7.92 10.807 3.843 3.494 9.499 5.252 13.73 8.184 4.302 3.025 11.965 9.004 17.563 16.72 3.307 4.478 5.766 7.253 7.568 11.333 2.17 2.113 26.874 18.976 28.066 19.582 3.526 2.377 7.522 3.553 10.803 6.33-1.356 2.15-2.417 3.283-3.523 3.93-4.394-1.271-6.904-1.59-10.34-2.551 3.436 1.57 5.177 3.07 7.957 4.187 8.677 3.487 17.978 5.046 26.965 7.744-.49 1.33-.91 2.625-2.117 3.49-1.563.834-3.244 1.22-4.639 2.378-1.542 1.477-2.87 2.135-3.248 3.377.13 2.177-1.177 3.45-2.223 5.173-5.29-2.77-11.322-3.158-16.586-6.173-10.838-5.8-19.81-12.517-32.38-14.422-.775.039-2.597-.744-1.776.793 2.112 2.144 5.071 3.352 7.377 5.335-.573 1.217-16.17 15.786-18.139 17.86-1.705 2.014-3.22 4.074-5.39 5.644-1.164.89-.31 1.614.574 2.17 2.248 1.46 4.527 2.84 6.969 3.94-.77 1.491-2.236 2.336-1.24 4.138 1.762.924 1.524.31 2.603-.865a25.602 25.602 0 0 0 1.902 3.05c.614-.53 1.223-1.066 1.828-1.607-1.027-2.229-2.62-4.29-3.142-6.64 1.602 1.368 2.383 3.229 4.088 4.482 1.556 1.26 3.358 1.923 5.224 2.594a11.71 11.71 0 0 1 .625-2.692c-.49-.568-.985-1.13-1.476-1.691 0-.627 0-1.254-.006-1.881l2.285-.408c4.646 2.457 7.71 5.784 10.42 10.213-.79-1.75-.939-3.196-1.48-4.881 4.638 2.399 9.435 31.74 9.369 33.816l.048-.004c.24 4.493.807 9.175-2.517 12.629-.18 2.18-1.19 3.991-2.38 5.701-2.04 1.674-4.293 2.261-5.333 4.961 1.854.826 3.19 1.671 4.36 3.377-2.133 1.304-4.161.73-6.596 1.066 1.957 1.88 1.941.399 2.652 3.118-2.048.078-4.525.503-6.463 1 .891 1 5.259 4.376 6.176 5.345 1.292 1.42 1.846 3.254 2.26 5.082-4.286-.197-5.92-2.105-8.584-2.027.568 1.97 2.241 2.674 3.488 4.29 1.117 1.271 1.561 2.765 1.91 4.392-2.319-.123-4.567-.57-6.828-1.1.046 1.053.593 4.814.65 5.867l-1.664 5.32c-2.513-1.995-4.224-4.875-7.634-5.52.846 2.453 1.28 4.507 1.17 7.142l-6.215-2.635-1.815 5.687c-1.143-1.034-2.245-2.263-3.369-3.394-1.602.304-.551 3.43-1.726 4.58-1.66 1.72-3.447 2.886-4.19 5.314 1.434.8 2.949.938 3.44 2.733.736 2.784-2.803 5.587-2.616 8.422.045 3.03.62 6.02.672 9.056 2.66-.885 5.212-2.041 7.899-2.85-.058.95-.204 1.881-.43 2.786-1.97 5.819-4.976 11.483-6.397 17.451-.562 2.92-1.122 5.961-1.064 8.94 1.306 0 4.157-2.617 6.78-3.108-.334 4.118-3.305 5.606-4.887 11.652-1.124 4.14-1.088 8.803-1.41 13.066 1.88-.136 3.927-.613 5.787-.303.795 1.95-.914 2.57-1.676 4.147-1.97 3.514-3.019 7.635-3.698 11.582-.2 1.627-.592 3.43-.294 5.05.82 1.364 1.872 2.57 2.615 3.99 1.95.079 2.661-1.323 3.779-2.634 1.078-1.363.89-3.43 1.35-5.09.33-.846 1.58-1.137 2.324-1.537.549 1.634 1.11 3.23 2.066 4.684l.362 1.025c1.417-7.799.531-15.514-1.579-21.785 2.428 2.263 5.976 1.063 7.082.555 1.175-.504 1.37-2.596 1.442-3.707-.258-6.543-4.349-13.35-6.022-19.19.595-.057 1.196-.11 1.791-.167 2.305 2.293 5.155 3.623 8.243 4.527.562-2.247 1.51-4.12.877-6.484-1.195-5.8-5.678-10.443-7.442-15.514 3.133-1.414 6.326-2.758 9.387-4.328-1.757-9.443-6.436-18.44-5.887-27.955 4.327 5.876 10.808 13.38 14.102 18.957 2.57 5.323 3.73 8.095 8.035 14.303 3.985-1.628 5.922-3.125 10.955-5.053-.853 8.59-5.78 15.664-6.29 24.377 3.61 1.537 7.295 1.678 11.118 2.246-.91 3.863-3.654 5.717-5.785 8.81-2.267 3.3-4.52 6.614-6.666 9.999.188 1.143.376 2.294.55 3.437 1.01.468 2.62.475 6.28.967-3.673 9.97-9.011 9.09-16.895 14.102-1.848 1.266-3.184 3.093-3.242 5.406 2.854-.13 5.612-.297 8.416.4-.11 3.65-2.57 6.188-5.328 8.229-3.72 2.751-9.341 2.564-13.836 3.83-.54 1.497 1.051 3.046 2.322 5.979-5.422.447-7.32.28-9.988-.52-2.293-.788-4.78-1.08-7.19-1.164-1.633-.15-3.56.13-4.076 1.602-1.662 4.754-1.452 9.773-.502 14.81.86-.03 1.72-.006 2.577.073.75.478 1.361 1.188 2.007 1.795-1.86 4.21-3.758 7.997-3.732 12.744.05 3.055.386 6.726 2.195 9.297 2.468 3.804 4.109 7.991 5.393 12.312 22.014-23.526 39.977-50.435 53.28-81.195 15.497-37.075 24.137-77.192 24.59-117.39-.005-61.181.005-145.63-.01-212.2H5.843l-.03 7.48c-.055.544-.053-4.31-.07-7.48zm257.84 25.621a1.371 1.371 0 0 0-1.371 1.371 1.371 1.371 0 0 0 1.371 1.371 1.371 1.371 0 0 0 1.371-1.37 1.371 1.371 0 0 0-1.37-1.372zm-121.56 5.06a1.606 1.606 0 0 0-1.605 1.606 1.606 1.606 0 0 0 1.605 1.606 1.606 1.606 0 0 0 1.607-1.606 1.606 1.606 0 0 0-1.607-1.605zm62.543 31.546-.082.433c.181.704-.377 1.311-.59 1.996-.676.29-1.774.431-2.496.215.675.493 2.435.675 2.813.543.233-.465.136-2.722.355-3.187zm-3.168 2.644c-.154-.112-.316-.225-.318-.373l.097.352c.058.026.156.002.221.021zm108.78 39.791c1.836 1.22 2.817 2.035 4.129 2.662 2.034.73 3.15 1.93 3.688 4.03-5.07 5.456-10.702 10.805-16.922 14.952-2.856 1.853-5.621 3.153-7.178 6.39 2.383-.253 4.722-.777 7.119-.983 1.91-.162 3.222-1.595 4.598-2.783 5.542-5.187 11.309-10.542 16.109-16.44-1.93-4.304-6.937-6.378-11.543-7.828zm-216.29 14.78c-3.584 1.775-7.453 1.886-11.09 3.384 4.082 2.894 8.545 5.282 12.543 8.318 2.493 2.028 4.392 5.16 7.111 7.086 3.456 2.441 6.856 4.792 10.705 6.588.73-.865 1.419-1.757 2.026-2.713-1.453-1.09-2.5-2.507-3.682-3.863-6.56-3.292-11.575-8.286-18.182-11.555-1.525-.768-3.43-.646-3.818-2.164 1.518-1.06 3.89-3.267 4.387-5.082zm223.77 1.22c-1.976 2.144-3.876 4.165-6.13 6.039.684-.246 1.317-.505 1.872-.983 1.783-1.53 3.567-2.673 4.258-5.056z" fill="#fff"/>
<path d="M140.3 25.1a29.24 29.24 0 0 0-3.228.22c2.273 1.707 3.267 4.859 4.013 7.489a3.516 3.516 0 0 1 2.856.422c.689.23 1.685.476 2.31.701.903-1.918 1.978-3.734 2.76-5.709-2.45-2.446-5.51-3.144-8.709-3.123h-.002zm124.47.166c-.858-.006-1.715.152-2.477.256-2.196.394-4.474 1.052-6.359 2.273a45.1 45.1 0 0 0-1.32 1.338l1.841.56.174.466c-.117 1.22-.277 2.436-.425 3.65-.575.356-1.158.709-1.739 1.059-1.292 1.66-2.313 2.745-1.39 4.935.427 2.364 1.21 4.087 2.535 6.07.652-1.744 1.156-3.705 2.402-5.119 1.606-1.893 5.847-4.207 8.035-4.197-.022-1.154.322-2.266.602-3.375a3.646 3.646 0 0 1-2.998 1.582 3.646 3.646 0 0 1-3.647-3.647 3.646 3.646 0 0 1 3.647-3.644 3.646 3.646 0 0 1 3.012 1.59c.406-.833.813-1.663 1.224-2.489-.908-1.02-2.014-1.3-3.117-1.308zM146.49 35.547c-.296.003-.606.01-.918.018.048.232.074.472.074.716 0 1.97-1.64 3.606-3.607 3.606-.272 0-.536-.033-.791-.092-.06 2.631-11.162 11.354 3.375 6.44.31 2.132 2.086 2.952 3.455 4.767.735-4.06 3.422-6.728 5.648-10.496-.459-1.55-1.44-2.44-1.035-4.25-1.496-.546-3.52-.735-6.201-.709z" fill="#f00000"/>
<path d="M264.44 25.322a13.96 13.96 0 0 0-2.13.2c2.143.05 3.978-.762 5.593 1.052-.414.829-.822 1.664-1.23 2.498a3.646 3.646 0 0 1 .628 2.045 3.646 3.646 0 0 1-.865 2.355c-.198.664-.372 1.356-.355 2.176-.713-.168-1.052-.574-1.28-1.076a3.646 3.646 0 0 1-1.146.191 3.646 3.646 0 0 1-1.219-.218c.887.472 1.66 1.051 2.406 1.775-2.436 1.124-5.044 2.347-6.814 4.434-1.247 1.414-1.75 3.376-2.403 5.119 2.577 3.863.967 7.21 1.588 11.434.322 2.984.51 6.005.983 8.976.75 4.076 2.81 7.998 5.006 11.48 2.506 4.043 5.47 7.724 8.603 11.296-.245-7.563-.02-15.139-.123-22.709.09-1.31-.284-2.448.865-3.385-.91-1.64-1.427-3.332-1.75-5.173-.243-3.636.188-6.636 3.37-8.721.62-.072 1.265.717 1.794 1.014 1.777 1.376 3.737 2.423 5.694 3.521 4.58-.747 8.819.966 12.207 2.442a63.9 63.9 0 0 0 .549 1.923c-.24-1.182-.216-2.357-.165-3.552 2.313.006 3.11 1.782 4.899 2.94 3.488 2.434 7.1 4.132 9.941 7.446 3.96 4.372 7.137 9.385 13.195 11.02-1.466-2.06-3.204-3.895-4.625-5.994-3.514-4.96-5.892-9.882-10.826-13.693-3.54-2.33-7.299-4.34-10.922-6.543-3.262-2.04-6.678-5.064-10.385-6.181-2.487-1.014-3.816 1.913-5.683 3.082-1.472-1.008-3.262-1.616-4.625-2.746a38.684 38.684 0 0 1-.022-2.739c-.768-.213-1.536-.42-2.305-.632-.039-.587-.084-1.168-.123-1.75a35.342 35.342 0 0 1-2.447-1.823c.872-.355 1.893-.586 2.662-1.148.904-.95.766-2.12.934-3.34-.521-2.384-1.859-3.765-3.19-5.348-1.71-1.225-4.074-1.688-6.285-1.646zm-127.16.129c-3.011 1.15-5.836 2.312-8.232 4.127 1.68-.226 3.164-1.013 4.888-1.033-.245 1.525-.567 3.009-1.11 4.455.976.536 1.99 1.072 2.907 1.699-1.266 1.743-2.83 2.643-2.365 5.104.272 1.408 1.894.71 2.947.916.2 1.647.18 3.399.62 4.994-.63 3.21 3.788 1.633 3.18 3.015-1.491.665-3.155.988-4.718 1.428-.175-.543-.341-1.085-.515-1.627-1.996.11-3.884.076-5.815-.512-4.42-2.562-5.09-7.42-3.275-11.922-6.275 2.15-6.785 7.786-6.514 11.016-1.447.613-6.567 4.337-7.756 5.332-2.073 1.615-3.944 3.435-6.14 4.889-5.277 3.507-10.7 7.416-14.744 12.352-7.325 8.99-12.26 19.776-20.373 28.07-1.893 1.91-3.043 4.236-4.65 6.348-1.248 1.699-3.352 2.732-5.057 3.998-6 4.32-11.171 10.062-17.1 14.545-2.022 1.498-4.372 2.358-6.336 3.966-3.023 2.383-5.566 5.258-8.73 7.493 1.71.846 3.368.904 5.235 1.007.891.026 1.222.867 1.772 1.442-1.086 1.033-1.731 1.806-2.074 3.318 2.08-1.176 3.33-3.288 5.508-4.418.065 1.854-.55 3.496-.97 5.266 1.655-1.66 2.29-3.655 4.616-4.623-.285 1.698-.65 3.377-.953 5.076 3.882-4.27 5.827-9.207 8.365-14.303-1.672.956-2.94 2.39-4.644 3.307-2.041 1.195-4.27 1.752-6.582 2.14.012-.698.046-1.397.091-2.095 1.583-1.272 3.597-1.948 5.147-3.297.969-.776.814-2.606 1.764-3.342 2.267-1.24 5.134-1.557 7.17-3.172 4.591-3.456 8.016-8.054 11.987-11.95 2.26-2.207 5.212-2.67 7.582-4.698 3.921-3.172 6.68-8.036 10.328-11.615 4.044-4.166 8.876-7.506 13.055-11.484 4.845-5.077 9.134-10.501 14.47-15.23.916-.755 1.931-1.319 2.964-1.894.116.6.226 1.203.342 1.797 2.332.22 2.075-1.672 3.205-3.125.975-1.382 2.505-1.57 4.094-1.332-.388.53-.775 1.061-1.162 1.584 2.202-1.485 4.205-2.803 7.002-2.584.439 1.77.51 3.217.252 5.026l.588-.065c.142-2.448.308-4.903.58-7.338.67.762 1.202 1.6 1.693 2.49.323-.956.51-1.943.717-2.925.833.168 1.665.345 2.492.52-.077-.93-.152-1.87-.224-2.8 1.622.485 1.659 1.766 1.982 3.174.962 3.92-.505 8.197-1.486 12.014 1.227 1.17.762 2.596.859 4.127-.123 9.92.148 19.868-.143 29.79 2.067-2.972 3.14-6.331 4.956-9.495.569.07 1.142.134 1.71.2 3.33-5.606 5.172-7.887 6.286-16.327.949-3.714.522-8.116.916-11.926-.928-7.06-1.154-8.51.207-15.34-2.182-3.702-3.637-6.712-5.957-11.119l-.088.002c-1.967 0-3.606-1.636-3.606-3.605 0-1.635 1.13-3.04 2.64-3.47-.046-.21-.096-.366-.157-.734-.75-2.648-2.198-6.038-3.639-6.627h-.002zm22.307 1.352a22.038 22.038 0 0 0-5.75.798c-1.091 1.518-1.783 3.418-2.43 5.155.55.64 1.1 1.273 1.649 1.912-.693.888-.95 1.133-.938 1.385.045.029.117.06.447.173 1.796.594 3.734 1.16 5.46 1.948.257-3.152 2.9-4.242 3.746-7.104-2.732 1.073-4.703 2.633-7.739 3.188.032-.517-.013-.546.026-1.063.51.008 8.351-5.159 9.01-6.092a19.525 19.525 0 0 0-3.481-.3zm96.363.992c-1.414.988-2.57 2.177-3.805 3.365-2.662-1.22-5.471-1.622-8.345-1.932 1.705 1.666 3.625 2.921 5.71 4.051.906.524 2.48 1.536 2.165 2.75l-1.473.234c1.043.907 2.103 1.599 2.648 2.817-.436-1.727.491-2.746 1.633-4.213l-1.092.414a7.855 7.855 0 0 1 .868-2.61c.097-.955-.136-1.944-.207-2.9l.58-.638c.433-.46.873-.905 1.318-1.338zm25.357 10.146c.568 1.26 1.228 2.48 1.861 3.7 1.247.008 2.493.015 3.733.015-1.86-1.376-3.424-2.818-5.594-3.715zm27.877 56.35v.002a2.66 2.66 0 0 1 1.037 1.267c1.083 2.92 2.36 5.755.242 9.342 2.325-.355 4.514-.781 6.846-.232 3.217.536 7.002 2.202 10.238 1.595.685-.504 1.26-1.157 1.873-1.744 2.3 1.13 4.722 1.466 7.26 1.615-.988-1.673-2.009-3.435-3.313-4.882-1.467-1.7-4.611-1.377-6.103-2.953-1.182-1.02-1.918-2.298-3.617-2.434-4.82-.53-9.638-1.13-14.463-1.576zm34.059 12.016s-1.164 2.256-1.312 2.263c7.872 3.085 14.08 9.089 21.672 12.861 3.178 1.46 6.541 2.485 9.712 3.971-.898-1.208-1.302-2.215-1.593-3.707 1.48-.252 2.905-.147 4.384.008-.975-.723-2.01-1.054-3.171-1.344.104-.814 2.484-2.153 2.587-2.967-7.15-1.957-16.235-4.785-23.404-6.697-2.065-.569-8.875-4.389-8.875-4.389zm-242.23 1.037c-2.216.103-8.593.53-10.66 1.396-7.648 3.016-11.075 5.933-18.541 9.383a26.656 26.656 0 0 0-3.172 1.694c1.808-.013 3.24-1.488 4.985-2.114 6.013-2.377 12.627-1.872 18.957-1.937a44.555 44.555 0 0 0-1.891 2.636c-1.105.161-2.106.078-2.97.91 1.891.072 3.544-.685 5.392-.898 2.648-.252 5.14.227 7.8-.264-1.052-.007-2.066-.206-3.087-.439-2.744-1.998-3.004-5.929.033-9.592 1.053-.252 2.107-.516 3.154-.775zm-69.377 30.732c-1.983.768-1.933 2.086-2.23 3.941 1.466-.93 1.791-2.378 2.23-3.941zm4.486 2.137-.728.033-.485 2.474c.368.04.732.076 1.1.102.077-.866.088-1.738.113-2.61zm2.051 2.984c-1.092.575-2.172 1.163-3.264 1.738.652.75 1.44 1.09 2.338 1.46.316-1.067.63-2.133.926-3.198z" fill="#fcdb00"/>
<path d="m206.63 61.67-.002.002c.181 2.293 1.94 4.243 2.281 6.568.052.348.08.701.12 1.053-.046.627-.363 1.011-.96 1.156-.406-1.266-.347-2.39-1.03-3.513-.77-1.085-1.607-2.105-2.259-3.274.187-1.247-1.045-2.959-1.859-1.299.02.743.096 1.48.232 2.203l.09.362.479 1.453.226.187c.18.704.168 1.395-.045 2.08-.736.316-1.451.316-2.148 0l-.1-.35c-.2-.658-.387-1.317-.568-1.982l-.4-1.105c-1.027-.878-1.176 1.126-1.008 1.752l-.078.723c-.852.426-1.686.826-2.403 1.472-.31-.982-.639-1.963-.943-2.945-.187-.62-.38-1.235-.568-1.848l-1.176.557c-1.117.827-2.24 1.588-3.526 2.137-.226-.678-.452-1.35-.685-2.028-1.582 1.588-2.414 3.365-4.719 4.069-.35-1.02.32-4.283-1.346-4.108-.6.69-1.123 1.433-1.685 2.17l-.135.11-1.24.652a15.605 15.605 0 0 1-1.84 2.855c-.117-.614-.241-1.226-.357-1.84l-.13-1.189-.503-.135-1.363-.38c-3.12.807-2.97 5.327-5.2 7.543a39.228 39.228 0 0 1-1.422-3.456l-.113-.304-.383-.961c-1.84 1.957-2.177 4.223-4.502 5.476-1.234 1.654-.445 4.373-1.091 6.356l-.258 1.215a197.52 197.52 0 0 0-.38 4.697l-.08-.008c-.09 1.583-.154 3.197-.439 4.76l-1.199.459c-.466-4.547.146-9.159-.338-13.719l-.232-.834a23.9 23.9 0 0 0-.582 2.693c-.542 3.617-.557 7.46.064 11.064l.162 1.157c-.265.743-.11 1.427.471 2.066l.117.775c.542 3.203 1.905 5.897 3.074 8.875.646 2.442.582 4.676 2.694 6.42a11.354 11.354 0 0 0 1.705-1.82c.155-1.299-.497-2.72-.988-3.902-1.763-3.894-2.797-7.414-3.178-11.703l-.154-1.867c-.11-1.288-.131-2.57-.139-3.858.173-2.55.682-6.032 1.107-8.375.555.026 1.105.057 1.66.096a67.08 67.08 0 0 1 1.608.097c.052 2.513.125 5.02.22 7.532l.077.71a35.818 35.818 0 0 0 2.021 8.25c-.117.666.117 1.117.692 1.35l-.154.612c.594.246.794.71.601 1.382.768 2.945 2.227 5.516 3.744 8.125.53.924 1.06 1.852 1.576 2.79.29.69.933.904 1.922.646l.889-.115c-.549-1.304-1.104-2.61-1.646-3.922-1.473-3.3-2.642-6.71-3.598-10.191-.252-1.615-.822-3.61.373-4.967l.22 1.092c1.455.697 1.098 1.904.995 3.234l.162.854c.065.4.187.795.361 1.17l.194.496c.039.632.303 1.176.8 1.629l.098.296c-.084.55-.006 1.053.246 1.518l.201.47c.187.46.373.92.547 1.378l.207 1.174c.37.27.742.537 1.123.789-.025-1.492-.238-2.656-.955-3.973-.402-1.053-1.024-2.317-1.305-3.928l-.232-.47c.123-.905-.097-1.712-.4-2.551l-.46-1.461c-1.212-1.144-.891-2.39-.478-3.817.033-.646.047-1.286.047-1.931a779 779 0 0 1 .037-5.297l1.184.68c.458 2.034.735 4.1.748 6.187-.355 2.61.633 4.1 1.853 6.238 3.01 5.13 3.707 10.75 5.297 16.717.463.743.89 1.533 1.215 1.913-.116-2.377.162-4.742.156-7.112-.524-2.83-1.59-5.53-2.04-8.386-.53-2.835-.874-5.688-.835-8.575.245-.58.509-1.15.813-1.707l1.382-.037c.433.103.874.212 1.307.315-.485.29-.965.59-1.443.886.27.95.538 1.892.771 2.848.303 3.946-.52 8.043.217 11.918l.428 1.238c.226 1.195.65 2.04 2.013 1.989l.977.027c.142-1.486.2-2.977.16-4.469-.206-1.582-.637-3.249-.605-4.838l.923-.38.471 1.685c.485 2.157.342 4.45.975 6.555l.29.904c-.606.394-.82 1.06-.632 2.01-.161.316-.324.632-.479.949.8.917 1.571 1.854 2.268 2.855l.647.692c.652-.37.892-.803.71-1.313a52.536 52.536 0 0 0-.814-1.865c-.549-3.72.317-7.746.66-11.479l.729-.283 1.232-.104.227 1.073c.245 1.253.498 2.531.814 3.765 1.557.988 3.243.625 3.695-1.287.278-1.13.414-2.318.569-3.474.459.213.917.432 1.375.646-.24.762-.053 1.448.554 2.055l.39.728c.083.161.167.318.245.479.2-1.06.103-2.402.865-3.203 2.021 2.668 1.28 5.31.905 8.351-.09.626-.176 1.26-.26 1.885.847-.813 1.815-1.576 2.52-2.525.374-1.492.284-3.14.355-4.67.252-2.474.22-5.005-.193-7.46-.35-1.846-1.31-3.248-.95-5.153l.16-1.383c.33-1.324-.812-1.409-1.71-1.809l.193-.832.678-1.254-.05-1.246a74.332 74.332 0 0 1-.02-2.94l1.2.356.557.73c.943 3.146 1.77 6.291 2.584 9.47l.451 1.277c.194 1.33-.738 3.914.71 4.644a36.38 36.38 0 0 0-.006-2.744c.762-.227 1.964-1.033 2.242.213.736 1.925.741 3.876.638 5.91-.743 1.422-.84 2.17-.478 3.758l-.115.336c-.852 2.093-.955 4.32-1.555 6.459a35.94 35.94 0 0 1-1.643 1.035c.032.768.077 1.537.116 2.299l.357-.201c1.776-.608 2.125-1.88 2.836-3.43 1.02-1.964 2.149-3.888 3.299-5.787.956-1.194 1.486-2.584 2.164-3.94.814 2.157.263 4.805.6 7.098.761-.58 1.499-1.175 2.107-1.924.78-1.886 1.452-3.759 1.47-5.832.189-3.45-.856-6.576-1.341-9.935 1.2 1.646 1.93 3.495 2.64 5.379.13 2.578.228 5.22-.101 7.785-.285 2.13-1.227 3.76-.18 5.885.4.36.806.71 1.213 1.064.646-1.414 1.343-2.796 1.762-4.295.847-3.559.51-7.486.045-11.084l-.186-1.42a51.417 51.417 0 0 0-.496-2.41c-.691-2.61-1.13-5.07-2.338-7.498a3.048 3.048 0 0 1-.39-1.383c3.22 2.478 4.483 8.817 5.234 12.574.755 4.616-.241 9.136-.666 13.713-.535 2.414-1.012 3.254-1.364 5.34-.063.378.84-.755 1.891-2.181 1.788-3.027 1.716-6.148 2.127-9.526.174-4.089 1.046-7.927.47-11.99a10.185 10.185 0 0 1 1.628 2.81c.188.428.376.847.57 1.266.284-2.59.515-5.095-.092-7.666-.297-1.485-.171-3.146-.513-4.625l-.631-3.691c1.305 1.223 2.288 2.306 2.71 4.025 1.316 6.725 2.75 13.61 1.934 20.535-.174 5.23-.684 8.773-1.9 13.406 2.488-2.256 3.025-6.385 4.187-9.55 2.008-4.878 1.066-11.377 1.157-16.71.414-5.67-1.097-10.888-2.854-16.204l-.207.076-.871.324c-1.686 1.305-2.571-1.028-1.861-2.397-.245-1.815-.587-3.344-2.602-3.808l-.564.5c-1.078-.375-1.91-.905-2.616-1.815l-1.039-.129c.186.608.366 1.216.547 1.823-.026 1.117-.036 2.131-.644 3.107a85.583 85.583 0 0 1-1.594-1.066l-.223-.42c-.91-1.472-.811-3.023-.908-4.69-.452-.387-.905-.77-1.363-1.15a38.506 38.506 0 0 1-2.229 3.152c.426.891.866 1.776 1.299 2.668.49.75.036 1.685-.926 1.465-.355-.355-.547-.84-.566-1.453-.356-1.95-1.255-3.57-2.069-5.36l-.449-.873a29.264 29.264 0 0 0-2.152-.974 25.95 25.95 0 0 0-1.156 1.078c-.233 1.919-.706 3.637-2.444 4.715-.039-2.034-.035-4.062-.222-6.09l-.649.96c-.769 1.08-1.432 1.016-2.652 1.009-.24.846-.622 1.558-1.15 2.152-1.358-1.634-2.171-4.393-4.141-5.33zm78.121 15.033 4.123 7.764-4.123-7.764zm-127.66 5.594-.145 1.478c-.05 2.615-.063 5.205-.425 7.801a45.292 45.292 0 0 0-.118 3.506c.013 1.46.19 2.902.454 4.336l.205 1.058c.246 1.111.034 1.804 1.197 2.36.077-1.97.31-3.807-.465-5.68l-.137-.404a31.155 31.155 0 0 1 .032-4.596l.174-.6c-.155-1.258-.05-2.02.466-3.164 0-1.312.007-2.624.014-3.935.213-.665.038-1.153-.531-1.482l-.721-.678zm88.945 2.17c-.071 1.156 1.01 7.814.945 8.97-.316 4.786-1.673 16.987-2.55 23.428 1.589-.769 4.028-12.37 4.306-13.869.368-3.378.332-6.743.022-10.127-.25-2.736-1.464-6.119-2.723-8.402zm-79.031.722c-.846 1.9-.601 3.767-.498 5.776.285 1.046.653 2.078 1.008 3.105l.633 3.78c.226 2.906.665 5.921 1.763 8.634.568 1.227 3.205.944 2.139-.832-.252-2.254-.608-4.386-1.752-6.382a43.695 43.695 0 0 1-.961-2.512c-.55-.53-.737-1.202-.576-2.03l-.188-1.226c-.207-1.534-.177-2.515-.535-3.979-.472-1.13-.567-1.97-.445-3.197l-.588-1.137zm136.12 2.12.363.128-.363-.129zm-135.22 7.001.047.041c-.016-.014-.03-.027-.047-.039v-.002zm.432.8a1.137 1.137 0 0 1 .002.115 1.137 1.137 0 0 1-.012.144 1.67 1.67 0 0 1 .012-.144c.002-.04 0-.078-.002-.116zm130.31 44.425c-.458.8-.414 1.764.283 2.403.427.575.892.737 1.402.472.691-.917 0-2.022-.91-2.46l-.775-.415zm-10.62.434c-.335-.003-.676.1-1.02.314-1.04 1.628 2.744 1.48 1.794-.109a1.702 1.702 0 0 0-.773-.205zm-6.599 1.201a1.81 1.81 0 0 0-.314.031c-.736.058-1.48.11-2.217.162a343.59 343.59 0 0 0 1.511 3.114c-.155.645.072 1.099.68 1.344l.008.627.049 1.193a60.7 60.7 0 0 0-1.393 1.24c.788.045 1.575.085 2.37.104l.36-1.537c1.119.026 2.759.418 3.702-.292.937-.763 3.094-1.818 2.5-3.298l-.666.218-.37.168c-.64.355-1.27.718-1.904 1.086-.678-.226-1.16-.054-1.45.502a28.737 28.737 0 0 1-1.454-.625c.497-.962.239-1.803-.4-2.617l-.15-.625c-.055-.54-.343-.804-.862-.795zm11.283 1.86-1.615.044c.084.988-.033 2.307.594 3.127.697.652 1.945.671 2.855.891l.697.086c.807-.13 1.473.082 1.996.63l.592-.054c.608.704 1.65 1.077 1.928-.105l.213-.645c.866-1.292.227-3.264-1.414-2.056-.478.38-.959.756-1.436 1.13-.743-.548-1.517-1.045-2.273-1.574-.665-.51-1.33-1.23-2.137-1.474zm9.508 1.355v.002a2.025 2.025 0 0 0-.477.059c-1.027.51-.657 1.235-.101 1.945-.187.989-.44 1.957-.717 2.926.659.627 1.266 1.07 2.119 1.42.16-.717.322-1.427.49-2.143.503.09 1.014.185 1.518.289l.453.686c.543.924 1.012 1.88 1.484 2.841l.213.776a4.14 4.14 0 0 0 1.42.252 4.63 4.63 0 0 0 .926-1.325l.158.698c.42 2.087.527 4.412-.1 6.472l-.62 1.034c-.415-.026-.828-.065-1.235-.098a61.163 61.163 0 0 1-.826-1.4l-.07-1.481c-.04-.853-.06-2.111-1.254-1.982-.484.213-.736.626-.756 1.234-2.26-.272-2.37-4.167-4.197-5.033-.426 1.68.444 5.471-2.159 5.44-.86-.686-1.252-1.932-1.853-2.843-1.298-2.286-3.365-3.862-5.742-4.908-.065 1.317.664 1.73 1.517 2.526l.33 1.128.168.569c-.22.86-.24 1.758-.058 2.701l-.051.69c-.537-.057-.996.15-1.377.615l-.149-.608c.316-.678.176-1.182-.431-1.525l-.4-1.213-.073-.39a15.5 15.5 0 0 1 .033-2.62c-.465-.704-.95-1.397-1.37-2.133l-.645-1.128c-.73.123-1.427.194-2.08.568-1.305.51-1.557 1.26-2.112 2.46l-1.841-1.183c-.032 2.08.426 2.906 1.705 4.45.155-.937.297-1.872.44-2.81.38.738.769 1.467 1.13 2.21l.115.465a118.72 118.72 0 0 1-.193 4.283 51.74 51.74 0 0 1-1.252-.815 28.027 28.027 0 0 0-2.674-5.334l-.42-.64c-.362-.065-.73-.116-1.092-.168-.104.956-.173 1.913-.277 2.869-.458 2.325-1.914 3.9-3.393 5.644-1.35 1.337-2.344-.484-1.375-1.71.148-1.474-.005-2.14-1.181-.73.4 1.575-.032 2.364-1.744 2.138-.95-.02-1.9-.046-2.842-.072.317-1.427.71-2.835 1.064-4.25-1.893.814-1.995 3.036-4.107 3.837a6.517 6.517 0 0 0-1.66-.912c1.234-1.17 1.692-2.459 1.117-4.113l-.793.045c-.762 1.337-1.195 3.443-2.54 4.295l-.73-.342c.878-2.848 2.39-5.104 2.086-8.256-.698.465-1.225 1.035-1.593 1.719a71.318 71.318 0 0 1-2.282 4.69c-.736 1.672-1.161 3.428-1.562 5.204-.717 1.447-.768 2.17-.361 3.747-.097.885-.196 1.763-.286 2.642-.375 3.184.233 6.529.666 9.688.097.646.193 1.284.303 1.93a51.9 51.9 0 0 1-.896 1.214c-.878.504-.847.936.103 1.291l.02.785c.445 3.978 1.612 7.95 3.02 11.697l.163.446c-.142.659.065 1.11.627 1.355l-.213.652c-.872 1.673.523 3.346 1.104 4.909 1.06.265 2.12.531 3.172.802l1.168.329c.44.149.879.291 1.324.433l.434.193c.969.775 2.388.524 2.091-.923-.084-.44-.54-.667-1.38-.68a26.95 26.95 0 0 1-1.669-.477c-.982-1.234-2.04-2.377-3.15-3.494-.55-.988-1.066-1.997-1.486-3.043l-.123-.633c-.846-.413-1.052-1.083-.62-2.007l-.039-.582c-.284-3.72.283-6.945-.957-10.523l-.755-.354-.342-1.299.232-1.435a88.41 88.41 0 0 1 1.783-.02c.22 1.163-.187 3.434 1.215 3.918.71-.058.878-.724.516-1.996a36.216 36.216 0 0 1 1.693-1.443c.026.847.038 1.7.057 2.545.562.272 1.131.543 1.693.82l.272 1.008c.66 3.546.847 7.184 1.66 10.69.227.86.51 1.705.793 2.55l.123.384c.633.213 1.214.18 1.744-.097l-.084-.42c-.323-1.711-1.259-2.965-2.092-4.444-1.42-4.199-1.42-8.444-1.324-12.824.122-1.033-.013-2.169.82-2.924.174 2.81.115 5.624.303 8.434.516.084 1.034.174 1.545.277l.457 1.237 1.086.135c-.336.62-.162 1.258.53 1.91l.097.629c-.264 1.11-.28 1.749.625 2.543l.047.556c-.193.704.02 1.184.633 1.436l-.065.58c.66.258.846.735.568 1.432l.239.84c.82 2.7 1.175 5.156 3.636 6.906.788-1.737.853-3.378.776-5.258.73-.084 1.451-.168 2.181-.246.782 1.376 1.047 1.97 2.688 2.248.736-.55 1.447-1.136 2.164-1.717a71.347 71.347 0 0 0-.29-4.246 44.258 44.258 0 0 0 1.589-1.272l.367-1.111 1.615-.096c.497 1.55.943 3.107 1.608 4.6.18.42.376.837.582 1.244.808.994 1.607 1.92 2.802 2.455.607.077.892-.316.854-1.195l.084-.608c.6-2.442.368-4.777 0-7.224-.071-.717-.15-1.436-.227-2.16.116-1.517-.465-3.623.575-4.838l.69-.155c.33.95.673 1.898 1.003 2.848.555 2.635.77 5.587 1.932 8.035.562 1.24 1.504 1.675 2.699 2.153.38-.775.762-1.545 1.156-2.313a23.31 23.31 0 0 0 2.092-1.441c.31.136.614.265.924.4.046.698.089 1.402.148 2.106-.62.879-1 1.738-1.988 2.293l-1.073-.233c.381.723.762 1.449 1.137 2.178.207.775.394 1.814 1.285 2.066.317-.162.472-.53.479-1.105.135-1.446.645-2.686 1.285-3.965a84.542 84.542 0 0 1 1.988-1.072c.588.582 1.175 1.156 1.77 1.73l.123-1.187.072-.686c-.22-.66-.033-1.137.574-1.434l.026-1.033 1.35.362c.373 1.693-.09 3.625-.594 5.252a104.31 104.31 0 0 1-.756 2.002c1.369-.084 2.027.041 2.906-1.141.717-.743 1.434-1.483 2.203-2.174-.317-.562-.324-1.188-.014-1.885.588-1.776.854-3.7 1.248-5.535.37-1.505.67-3.017.942-4.54l1.61.212.148 1.498c-.956 1-.88 1.88-.543 3.147l-.213.691c-.633.866-.724 1.55-.569 2.596l-.115.652c-.22 1.156-.363 2.3-.363 3.475l-.012.257.387-.296a43.04 43.04 0 0 0 1.582-1.29c.136-.556.278-1.112.42-1.668l.168-.523c.717-.827.75-1.473.568-2.52.265-2.951 0-5.87.084-8.822.342.8.686 1.6.996 2.408l.139.498c-.122.691.133 1.137.765 1.344l-.046 1.281a3.933 3.933 0 0 0 .058 1.993c-.045 1.014-.084 2.014-.187 3.029-1.08 1.608 3.404.912 2.279-.398l-.361-.758c.42-1.57.323-2.311-.381-3.752-.084-.626-.168-1.253-.258-1.873.006-2.196.103-4.384.148-6.574.51-.18 1.016-.362 1.526-.543.077 1.266.007 2.429.762 3.527.156.413.283.84.398 1.26-.012 1.95.169 3.77.75 5.636 1.098-.898.815-2.258 1.08-3.556l.09-.596c.555-.898.735-1.647.387-2.681.09-.64.182-1.284.279-1.93.717-1.485.73-2.7.49-4.309a46.204 46.204 0 0 1 .078-4.011c-.923-.2-1.085-.873-.484-1.997l-.31-.58-.395-.724c-.446-.226-.884-.45-1.336-.664-.91-1.705-1.002-3.403-.938-5.301 1.99 1.51 2.816 4.494 3.836 6.703l.233.627c.697.226.918.676.66 1.367l.123.485c.374 1.86.793 2.92 2.33 4.095.006-1.408-.026-2.776.356-4.146.232.459.524.897.873 1.304.277-1.007.258-2.021.168-3.048-.072-1.524-.208-3.042-.473-4.547l-.121-.73c-.588-2.365-1.249-4.67-2.36-6.846-1.24-2.357-2.706-4.547-4.798-6.227-.26-.29-.6-.374-1.04-.252a16.808 16.808 0 0 0-.316 1.938c-.91-.581-1.815-1.177-2.758-1.713l-.174-.09-.912-.362c.058.852.156 1.7.291 2.551l-.078 1.551c-1.524-.277-2.19.453-2.312-1.53l.447-.782.174-.35c-.142-.658-.549-1.227-1.227-1.705l-.123-.115-.176.005-1.162.04c-.349.64-.691 1.285-1.021 1.937a64.95 64.95 0 0 0-2.635-1l-.531.232c-.122.936-.218 1.873-.315 2.809l-1.84-.039a274.04 274.04 0 0 0-.42-3.217c-2.53-1.376-3.21-4.081-5.613-5.683-1.072-.64-2.402-.95-3.578-1.344-.656-.2-1.29-.504-1.967-.498zm23.543.441c3.225 2.926 12.54 17.775 14.432 23.447-1.565-11.81-10.37-22.028-12.197-22.906a66.158 66.158 0 0 0-2.235-.54zm-199.23 1.621a2.097 2.097 0 0 0-.897.249c.013 1.292 2.96 2.65 2.94.511-.724-.38-1.332-.783-2.043-.76zm144.62.375c-.44.53-.731 1.17-.873 1.918.736 2.21.912 4.51 1.777 6.686.465.988.845.93 1.149-.168.607-1.73 1.486-3.224 2.597-4.678l.975 1.055c.026 1.06-.33 3.023.756 3.662.206-.484.38-.98.515-1.484.51-1.783 1.087-4.225.383-6.008l-.558-.355c-1.505.084-2.957.466-4.481.453a18.277 18.277 0 0 0-2.24-1.08zm-2.176.083-.629.068c-.652-.052-1.155.187-1.523.717l-.574.336c-.136 1.31.193 2.395.638 3.603.24 1.182.356 2.384.44 3.592h.49l-.006-.727.227-.916c.678-.187.95-.631.82-1.341l-.02-.583c.653-.556.84-1.24.555-2.054l.465-.885c-.09-.768-.387-1.37-.885-1.809l.002-.002zm22.908.021c-.38.012-.762.14-1.228.453 2.164 2.067 4.65 3.99 7.41 5.192 1.123-1.744 1.108-2.558-.817-3.52a54.129 54.129 0 0 1-3.771-1.771c-.627-.2-1.106-.37-1.592-.354h-.002zm-174.29 1.89c-.834 2.824 1.266 4.07 2.047 6.583.188.588.374 1.183.549 1.777l-1.557-.143c.02.755.046 1.513.065 2.268-.523-.62-1.046-1.227-1.524-1.879-1.143-1.641-2.163-3.281-3.72-4.58l-.88-.473c-.31.575-.167 1.18.42 1.8l.33.642c-.186 1.066-.259 2.12.006 3.185-.743.361-1.49.717-2.24 1.072-.446-.736-.89-1.473-1.33-2.216-.485-.652-.945-1.445-1.797-1.633-.989.259-1.012 1.381-1.232 2.201l-.104.64a285.56 285.56 0 0 1-2.351-.046c-.51-1.376-1-2.72-1.815-3.96l-.912-1.433-.056-.09-.131-.2c-.078.683-.2 1.363-.367 2.028-.937.95-1.002-.717-1.286-1.293l-.117-.373-.431-.941a1.45 1.45 0 0 0-.42-.06c-.357.004-.714.145-1.067.42l-1.459.716c-1.08.44-.647 1.448.115 1.977l.756 1.57 1.15-.518.407-.33c.866 1.17.588 2.7.646 4.063-.756-.012-1.512-.03-2.261-.05-.187-.505-.374-1.01-.56-1.507-.247-.652-.506-1.31-.757-1.957l-.35-.941c-.471-.2-.93-.234-1.374-.098a5.06 5.06 0 0 0 .095 1.861 25.935 25.935 0 0 1-2.37 1.82c-1.144-1.865-2.214-3.739-3.725-5.347-.55-1.24-1.887-.246-.532.432-.62 2.17.149 5.563-2.59 6.344-.955-1.537-2.046-2.899-3.267-4.229-.542-.698-1.084-1.326-2.047-.932l-.008.452c.006 1.318.047 2.643-.05 3.947A69.22 69.22 0 0 1 78.297 161a88.652 88.652 0 0 1-1.898-1.025 41.18 41.18 0 0 0-1.201-1.596c-.11.749-.207 1.498-.297 2.248-.252 1.776-.37 3.559-.428 5.348-.27.892-.575 1.77-.871 2.648-2.068-1.46-2.28-5-3.004-7.299-.07-.504-.207-2.57-1.137-1.847-.375.66-.439 1.466-.193 2.416-.2 2.732-.387 5.218-2.758 6.988-.78-1.39-.82-2.876-1.209-4.387a5.812 5.812 0 0 0-1.265-1.498c-.136 1.195-.2 2.338-.504 3.508l-.16.639c-.782 2.306-.008 4.296-.28 6.718-.264 2.338-.335 4.54.336 6.82-.05.983.065 1.723.608 2.557l.129.62c-.11 1.007.033 1.717.537 2.595.09.756.18 1.514.277 2.27.517.142 1.04.283 1.562.425.058.613.11 1.22.163 1.829.807.568 1.635 1.08 2.513 1.525 0-2.712-.79-5.246-1.119-7.9l.924-.051c.6 2.725.82 5.986 2.475 8.312 1.53 2.125 2.648 4.494 4.146 6.62.394-.24.665-.67.807-1.298-.53-.782-.8-1.532-.961-2.455a83.92 83.92 0 0 1-1.26-1.382c-1.337-2.125-1.332-4.276-1.08-6.704 1.435 3.545 2.55 4.51 3.65 6.614.31.64.57 1.291.776 1.949.22 1.325.773 1.324 1.968 1.234.55.303 1.106.608 1.668.905l.09.047 1.596.6c-.33-1.823-1.85-2.819-2.941-4.292l-.205-.25a79.747 79.747 0 0 1-1.137-1.484c-.472-1.11-.87-2.25-1.272-3.387l1.04-.123c1.452 1.395 2.563 3.017 4.275 4.154.039-.808.071-1.607.103-2.414.026-.743.066-1.48.098-2.217.523.71 1.046 1.436 1.557 2.159l.316.45c.349.492.69.982 1.04 1.473.553.833 1.105 1.668 1.673 2.495 1.563 2.022 1.628 5.128 4.185 5.787a12.44 12.44 0 0 0-.369-4.23c1.75.076 3.502.142 5.252.232l1.168.134c-.33.652-.11 1.28.653 1.887l.072.6c-.026 1.123.046 2.042 1.047 2.74l.69.619c.328.549.814.762 1.447.633l.582.058c.716.084 1.426.187 2.136.284.51-1.26.997-2.591 1.688-3.766a22.09 22.09 0 0 1 2.531.066c.065.91.11 1.819.143 2.729.645.188 1.298.359 1.957.514l.308.064c.678-1.486.394-2.933-.297-4.348-.155-3.436-.283-7.207.627-10.547l1.143-.033a48.57 48.57 0 0 1-.496 1.906l.562.278c1.815 1.466 1.91 4.256 2.28 6.38.258-.335.497-.69.716-1.052.35-.704.659-1.433.93-2.182.452-.633.594-1.318.445-2.04l.047-1.438c.53.02.995-.199 1.389-.65.07.722.129 1.453.174 2.177-1.253 2.59-2.39 4.825-2.248 7.822.22 1.434.438 2.92.93 4.295 1.917.491 2.28-2.754 1.124-3.691 1.123-3.28 2.789-6.082 3.067-9.64l.285-.544c.788-.245 1.575-.496 2.363-.748.13-1.318-.14-2.876.756-3.922.407-.245.8-.49 1.201-.742l.014-.4c.13-.82-.259-1.33-1.176-1.537l-.006-.569c.181-.659-.025-1.13-.613-1.408l-.156-1.078c-.284-1.957-.542-3.909-.613-5.885.523.148 1.052.284 1.582.42l.705-.234c.445 1.434.722 2.69.341 4.181-.782 3.817 3.043 6.892 1.971 10.373-.516 1.7-1.765 2.333-3.076 3.327a15.255 15.255 0 0 0-.201 1.795l-.031.742c-.62.884-.788 1.57-.465 2.629l-.342 1.293c-.207.776-.608 1.503-.098 2.26.73.658 1.558-.252 1.54-1.022.07-.613.134-1.227.199-1.84.407-.349.82-.691 1.234-1.033-.374 1.602-.854 3.087-.705 4.754l.078.445c-.678.297-1.247 1.745-.271 1.99.833-.18 1.123-1.098 1.433-1.789l.297-.433c.446-.613.911-1.214 1.357-1.834a87.632 87.632 0 0 0 1.577-1.899c.62.213 1.291.23 2.021.057l1.324.537-.252-1.498c-.135-.95-.11-2.222-1.04-2.771l-.743.658-.568.008c.006-.788-.284-1.113-.885-.977l-.187.006-2.254-.076c.962-1.33 1.652-2.688 2.214-4.225-.123-1.092-.096-2.048.163-3.121.478-2.124.226-4.113.103-6.25l.807-.316c.077 1.415.284 2.732.697 4.082.594 1.686.175 3.732.168 5.515-.49.465-.433 1.026-.607 1.652h.001v.39h-.001c.18.238.361.47.542.702-.088-1.414.144-2.056 1.067-3.054.58-.478.754-1.165.53-2.057.42-.613.84-1.224 1.259-1.844-.814-4.089-.543-8.204-1.73-12.26.09-.678-.163-1.123-.764-1.33l.129-.771c.556.13 1.111.274 1.654.435.937 3.455.892 7.201 1.486 10.74.09 1.718.11 3.435.123 5.153l.698-.11c1.15-.025.594-1.872.4-2.525l.277-.627c.776-.852.762-1.538.498-2.61a81.83 81.83 0 0 0 .012-3.775c-.006-1.596-.006-3.198.072-4.8 1.014.523.66 1.833.846 2.782.22 2.577.556 5.123.4 7.725-.025.872-.065 1.75-.123 2.63-.524 1.634-.969 3.287-1.453 4.927-.67 1.647-1.698 3.127-2.363 4.78l-.227.517c-.956 1.544.794 2.015 1.68.904 2.767-2.68 3.343-6.338 4.354-9.902l.115-.6c.594-.594.795-1.267.621-2.01l.09-.367c.213-.82.374-1.659.465-2.504.484-3.579.567-7.024-1.409-10.195l-.162-.291c-1.233-2.131-2.33-4.255-2.996-6.639.26-1.182.55-2.267-.554-3.107l.16-.852c-.988-.503-1.55-1.467-1.938-2.468-1.453.717-2.46 2.216-3.978 2.63-.446-.13-.776-.473-.989-1.029-.86-1.937-1.253-4.12-1.53-6.213l-.348-1.111-.532.014-.877.013c.543 1.247.813 2.364.832 3.727l.233 2.15c-1.382.013-2.757-.026-4.133-.207l-.484-.4a62.92 62.92 0 0 1-.641-1.537l-1.89-.365c-.51-2.3-.706-4.435-.454-6.786-.943-.258-1.891-.517-2.841-.775zm-8.914.008c-.173.003-.369.068-.594.217-.193.387-.128.82.207 1.297.601 1.073 1.13 2.176 1.647 3.281.936 1.576 1.9-.385.795-1.361-.343-.652-.66-1.32-.944-2.004-.18-.656-.492-1.44-1.11-1.43h-.001zm23.809.336c.097 1.143.413 1.775 1.072 2.686l.414.607.18.182c.42.039.846.07 1.266.103 0-1.17.001-2.333.007-3.502-.98-.032-1.957-.057-2.939-.076zm-54.107.614c-.94.008-1.54.695-.729 1.67 1.247.607 1.396-.698 1.28-1.602a2.215 2.215 0 0 0-.551-.068zm46.039.033c-.04 0-.079.002-.12.004 0 .704.033 1.415.085 2.125.904.078 1.478.174 2.26-.375l-.461-.86-.244-.42c-.412-.326-.919-.488-1.518-.474h-.002zm-60.223.096a21.8 21.8 0 0 0-1.77.08c-.439 1.828-.239 3.603.059 5.431l.625-1.052a17.49 17.49 0 0 0 1.19-2.041c.174-.802.18-1.602.148-2.416l-.252-.002zm39.328.445c-.595.003-.882.446-.326 1.383l.53.963c1.136.969 1.304-.907.942-1.623l-.117-.418c-.375-.202-.738-.306-1.03-.305zm18.828 1.99-.387.012-.924.388c-.038.788.143 1.497.543 2.13 1.363 2.125 1.381-1.95.768-2.53zm-64.816.309c-1.047.42-1.316 1.326-1.807 2.23-.362.807-.601 1.652-.853 2.492-.472.44-.541.91-.205 1.414l.476-.162c1.253-.362 1.99-2.091 2.66-3.111a7.5 7.5 0 0 0-.271-2.863zm9.25.265c-.48 0-.957.014-1.432.043-.78 1.305-1.595 2.856-1.75 4.387.666 1.427 1.621 2.725 2.467 4.043.252.452.581.574.988.361.644-1.203.035-1.437.291-3.043a40.45 40.45 0 0 0 .026-5.16l-.11-.627c-.16-.003-.32-.004-.48-.004zm9.69.73c-.647 0-.89.323-.727.97.665 1.24 1.531.62 1.195-.588-.045-.254-.317-.26-.469-.381zm48.835.253c-.198 0-.442.063-.744.2-.207 1.396.49 2.758 1.4 3.772-.18-1 .731-3.982-.656-3.972zm-52.764.845c-.905.11-1.814.154-2.726.205-.007 1.667.6 2.938 1.344 4.38.665.25.878.716.632 1.388l.084.717c.356-.433.782-.634 1.28-.608a32.21 32.21 0 0 1-.02-3.443c.892.142 1.235-.109 1.022-.748-.13-.4-.26-.808-.395-1.209l-.142-.445a2.37 2.37 0 0 0-1.079-.237zm66.23.832c-.569.02-1.232.911-1.002 1.791.84 2.37 1.849 4.721 2.915 7.002.13.271.258.544.394.809.413-2.157.205-3.288-.725-5.219l-.218-.562c.18-.962-.034-1.635-.64-2.01l-.013-.719c-.06-.804-.37-1.103-.71-1.09v-.002zm-19.688.028c-.646.116-.84.56-.587 1.336.62-.232.82-.677.587-1.336zm-58.352.445-.638.639c-.814.678-.526 1.66-.588 2.636-.237 1.653-1.253 4.415-1.31 6.485l.523-.065c.833-.006 1.375-.375 1.639-1.11.214-.434.403-.879.564-1.331.42-2.132.885-4.593 0-6.647l-.19-.607zm-5.056 5.154-.524.252-.082.485-.207 1.26c-.588 4.32-.529 8.777-.459 13.13 1.667-.431.97-2.389 1.215-3.687.04-.756.09-1.513.14-2.275.33-2.248.505-4.457.42-6.737.014-.56.015-1.116.009-1.68l-.014-.49-.498-.257zm285.47 7.194c.152 4.852 1.236 10.772 1.662 15.447-.133 5.427-1.018 8.17-.99 11.115 1.34-1.684 2.548-8.256 2.44-11.674-.36-4.301-.794-9.459-3.112-14.89zm-90.564.164-.877.056c-.162 2.648-.556 5.039.129 7.655l.207.459.656.935c.646-.31.718-.86.22-1.64l-.226-1.137c-.013-2.112.032-4.216-.11-6.328zm2.834 3.584c-.051 2.035.252 3.984.756 5.941.368-.187.697-.407.994-.672-.187-1.815-.955-3.634-1.75-5.27zm-195.69 5.387c-.486.03-.614 1.328.084 1.826l.865.574c.297-.588.19-1.2-.307-1.84-.247-.417-.467-.572-.642-.56zm277.13.498c-.135 2.002-.065 3.933.387 5.896-.194.66-.388 1.318-.575 1.977-.278.717-.058 1.11.659 1.162l.548.097c-.29-2.61.298-5.2.008-7.79.013-.634-.33-1.084-1.027-1.342zm-80.271.982c-.975.768-.743 2.402.4 2.879.272-.884.44-2.253-.4-2.879zm-109.29 1.484c-.601.614-.948.968-1.04 1.86l-.167.918c-.524 1.059-.555 2.052-.46 3.209-.082.742-.16 1.485-.232 2.228.988-.762 1.26-1.671 1.537-2.847.414-1.802.523-3.52.362-5.368zm-84.334 2.352c.09.795.213 1.58.33 2.37l.168 1.194c-.24.846-.015 1.51.69 2.002l-.024.543c-.162.646.03 1.13.592 1.448.685 1.44 1.26 2.685 2.797 3.388-.42-1.582-.976-3.118-1.467-4.681-.53-.35-.685-.84-.46-1.492-.263-.808-.514-1.614-.798-2.415a64.017 64.017 0 0 0-.55-1.564c-.42-.277-.846-.54-1.278-.793zm187.17 1.691c.052.923.18 1.836.42 2.727.937 2.868 2.59 5.587 4.36 8.016.703.517 1.144.386 1.318-.383-.446-1.124-1.027-2.137-1.596-3.203l-1.938-4.477-.187-.684c-.471-1.53-.833-1.654-2.377-1.996zm-103.56.383a1.821 1.821 0 0 1-.004.133c.003-.044.005-.088.004-.133zm-.012.233a1.821 1.821 0 0 1-.016.1 1.508 1.508 0 0 1 .016-.1zm120.3 2.57c-.554.02-.8 1.297-.1 2.039l.266 1.217c.28.905.567 1.68.514 2.59-.22.633-.044 1.117.531 1.459a33.546 33.546 0 0 0 1.59 3.802l.256.705c.588.692 1.151 1.339 2.023 1.66.097-.812-.059-1.48-.47-2.01l-.253-.378c-.666-1.1-.736-1.908-1.183-3.248l-1.194-3.953a34.076 34.076 0 0 0-1.226-3.223c-.273-.483-.538-.668-.754-.66zm-133.38 4.002c.236.09.355.167.358.23-.003-.063-.123-.14-.358-.23zm.358.234c-.003.064-.123.114-.362.149.24-.035.359-.085.362-.149zm139.18 3.889h.015l-.031.004c.005 0 .012-.004.016-.004zm-200.41.459c.226 1.311.471 2.603.884 3.87l.272.665c1.09.795 2.31 1.31 3.55 1.834-.096-.775.125-1.778-.546-2.308-1.41-1.376-2.551-2.905-4.16-4.061zm-2.72.924c.033 1.233.143 2.455.401 3.67l.86.367c.446.16.891.316 1.337.47-.078-.91-.124-1.732-.62-2.533-.563-.833-1.137-1.42-1.977-1.974zm230.12 2.699a.98.98 0 0 0-.558.176c-.439.788.905 1.777 1.576 1.195.42-.736-.313-1.383-1.017-1.371zm-7.898 1.375c-.55.039-1.1.097-1.648.168.31 1.092.293 2.073 1.514 2.512a61.49 61.49 0 0 0 .134-2.68zm-224.98.033c-.695.03-.73 1.251-.056 2.031l.316.498c.834 1.556 2.995-.175 1.496-1.337l-.844-.762c-.376-.316-.68-.44-.912-.43z" fill="#880080"/>
<path d="M80.741 110.115a30.986 30.986 0 0 0-3.736.225c-1.06.07-2.119.11-3.178.148l.115 1.453a61.552 61.552 0 0 0 4.36-.22l.587-.04c.646.155 1.137-.037 1.454-.58l.937-.982c-.18-.003-.36-.004-.539-.004zm7.609-14.442c-1.634.077-3.733-.078-5.186.78-1.085.608-1.286 1.914-1.783 2.96.407.368.807.73 1.207 1.098-.807.633-1.55 1.266-2.125 2.138 2.202.381 3.552-.886 5.451-1.693 2.074-.969 4-1.802 5.137-3.94-1.034-.135-2.087-.02-3.152.362l.45-1.705zm-8.575 7.21c-2.165-.001-3.924.592-5.642 2.118l-.586.535c-.104.439-.208.879-.305 1.318 1.053 0 2.106-.013 3.153-.02.387.272.78.537 1.168.796 1.078.006 1.518-.48 2.267-1.145-.284-.388-.561-.782-.846-1.176.756-.704 1.493-1.323 1.745-2.388a13.484 13.484 0 0 0-.954-.038zm-2.314 2.286zm210.071-52.001a30 30 0 0 0-5.886.437c1.382.808 2.356 1.738 3.267 3.05.588 1.013 1.634 1.724 1.072 2.984-.53.232-1.072.431-1.634.6l-1.202-.802c-1.233-.917-2.57-1.421-4.042-1.822 1.356 1.802 3.476 3.87 3.837 6.156-.915-.901-1.506-1.355-2.34-2.13-.787-.575-1.71-.995-2.57-1.434-.2.394-.407.786-.607 1.174 2.48.504 4.405 1.957 4.63 4.625-.955-.646-2.17-2.283-3.454-2.384 1.382 1.608 3.54 3.3 4.392 5.31.977 2.764.638 6.716.864 7.38 1.162 1.512 3.82 4.195 5.002 5.694 1.66 1.246 3.41 2.337 5.218 3.357l.328.195c.55.323-1.563-1.876-1.765-3.085.623.646 16.372 9.282 32.904 9.718.4-.42.808-.839 1.209-1.265-.13-.64-.258-1.287-.4-1.926.142.64.27 1.286.4 1.926-.4.426-.809.846-1.21 1.265l9.626-.937-.006-1.11c-1.576-.962-3.145-1.836-4.521-3.095-1.628 1.46-2.81 2.19-5.065 1.408l-.47-.303c-.204-.372-.611-.85-1.48-.484-2.668-.304-5.645-.142-7.9-1.815-.503-.71-.981-1.454-1.517-2.132-2.306-1.9-6.138-1.853-8.908-2.81-.653-.217-1.638-.768-3.016-1.64-1.256-.631-2.84-1.774-3.703-2.37-2.55-2.067-3.395-2.83-5.81-6.737 1.788-2.868.813-5.308.142-8.318 2.028-.175 2.506.103 3.41-1.873-.665-.653-1.338-1.281-1.926-2.004-.194-.64-.048-2.755-.223-3.4-2.068-.684-4.541-1.331-6.646-1.403z" fill="#fcdb00"/>
<path d="m254.624 29.132 1.84.562.175.465c-.116 1.22-.278 2.435-.426 3.65-.575.355-1.157.71-1.738 1.059l-1.091.413c.129-.904.42-1.776.865-2.61.097-.955-.136-1.944-.207-2.9z"/>
<path d="M131.87 36.444a75.792 75.792 0 0 1-.723 2.557c-1.02.356-1.964.86-2.939 1.312l-.213-1.008c1.053-1.33 2.306-2.228 3.875-2.861z" fill="#fff"/>
<path d="M272.54 62.965c-1.15.937-6.94 2.752-7.867 7.639-1.411 7.439-3.6 7.188 7.164 18.465 6.769 7.415 15.403 12.992 25.24 15.285 1.873.452 3.8.588 5.73.756 2.571.36 5.096.193 7.647-.207 5.745-1.323-.046-6.544.025-9.811-.227-.254 5.679.026-1.304-.803-1.492-.258-2.977-.55-4.424-1.002-2.441-1.098-4.935-2.103-7.338-3.285-5.748-3.003-11.355-6.552-16.16-10.924-1.615-1.537-3.386-3.269-4.348-5.297-.278-1.46-.05-3.202-.722-4.52-1.098-2.163-2.461-4.184-3.643-6.296zm-139.25 7.01c-1.097 2.983.002 6.392-.793 9.271-1.143 2.235-2.758 4.212-3.992 6.409-2.267 3.72-5.536 5.865-8.96 8.384-3.12 2.28-5.85 5.083-8.816 7.576a45.665 45.665 0 0 1-7.937 5.295c-.594.155-1.187.305-1.79.434-1.044.258-7.17 1.101-8.224 1.353.078 3.204.927 9.223 5.008 9.43 1.366-.058 2.066.018 3.12.024.722-.2 1.44-.42 2.15-.653 6.706-.608 10.938-2.47 15.955-4.496 5.484-2.319 11.005-4.528 14.996-9.113 9.896-12.985 7.283-12.483 6.82-19.287-.373-5.471-6.306-13.455-7.537-14.627z" fill="#fb9"/>
<path d="M299.74 63.28c1.68.77 2.842 1.616 4.075 2.991-1.291.35-2.68.892-4.024.86-1.098-.369-1.743-1.183-2.447-2.042a9.112 9.112 0 0 1 2.396-1.808z" fill="#fcdb00"/>
<path d="M120.67 65.238c.246.394.2.872-.135 1.427-.762 1.066-1.906.517-1.453-.73.439-.723.968-.956 1.589-.697zm9.16 1.02c-.401 1.757-.957 3.017-2.093 4.412.09-1.867-.575-4.27 2.092-4.412z" fill="#fff"/>
<path d="M304.913 69.824c-.55.018-.998.407-1.548.802-.052.446-.071.891-.065 1.33l.283.149c.453.233.898.465 1.344.697.84-.516 1.68-1.008 2.486-1.576-.232-.743-1.045-.813-1.666-1.162-.312-.18-.583-.248-.834-.24z" fill="#fcdb00"/>
<path d="m170.25 71.019.116.303z" fill="#fff"/>
<path d="M117.602 71.393c-.012.71-.025 1.421-.045 2.132a26.09 26.09 0 0 1 1.97.659 11.91 11.91 0 0 1-.168 2.383c.976.316 1.9.723 2.823 1.175a77.666 77.666 0 0 1-2.648 2.997c.161.795.33 1.583.49 2.377-1.33 3.437-3.222 6.485-5.037 9.676-.84 1.492-2.37 2.448-3.747 3.404-3.533 2.338-7.279 4.379-11.07 6.278-2.351 1.311-5.051.258-7.641.962-2.016.582-3.805 1.525-5.613 2.558-.982.491-1.835 1.17-2.946.556-.038-1.053 1.13-1.628 1.77-2.351 1.473-1.286 2.61-3.094 4.244-4.128 4.534-2.635 10.567-4.618 14.255-8.39 1.944-2.332 2.822-5.458 4.463-8.035l.233-.517-.291-.587-.51-.065c-1.673.09-2.087 1.524-2.913 2.706-1.635.071-3.075.368-4.548-.542-1.033-.762-2.19-1.221-1.472-2.713 1.511-3.76 5.703-5.342 7.512-9.146 2.073-.116 3.81.258 5.761.898 1.796-.246 3.572-1.395 5.128-2.287z" fill="#fcdb00"/>
<path d="M227.903 71.445c-.226.898.829 3.781 1.287 4.595l.531 1.106c.504 1.033 2.062 6.04 2.56 7.074-.401-4.451-1.468-9.261-4.378-12.774z"/>
<path d="M305.081 74.364c.814-.025 1.628-.006 2.448-.032 2.003-.303 3.695-.258 5.684.13-.355.632-.73 1.265-1.124 1.885-1.672.233-3.255-.058-4.921-.155h-.026l-.82.155c-.433-.652-.866-1.291-1.24-1.983z" fill="#fcdb00"/>
<path d="M307.142 76.192h.026c1.666.097 3.249.388 4.921.155-1.517.343-4.74 1.77-5.767 0z"/>
<path d="M319.892 78.73c-1.938.033-4.096-.123-5.963.407-.783.027-1.066.001-2.62.552l.167.475c2.37-.297 4.249 1.326 6.47.64l.91-.446c.356-.536.694-1.078 1.036-1.627zm3.617 2.029c-.032.575-.065 1.143-.09 1.711.49.117.988.24 1.485.356-.607.62-1.085 1.253-1.854 1.679-1.963.271-4.01.097-6 .097l.349-1.873c2.616.032 3.985-.562 6.11-1.97z" fill="#fcdb00"/>
<path d="m173.247 81.74.956.356c.206 2.377.788 5.445-.026 7.699-.569-1.712-.86-3.481-1.105-5.264.033-.93.09-1.86.175-2.79z"/>
<path d="M97.024 86.346c-.555 2.306-3.468 2.35-5.322 2.977-.187-2.221 1.867-2.402 3.268-3.649.827-.73 2.048-.672 2.054.672zm230.593-1.337c.678-.64 2.144.174 1.64 1.072-.658.504-2.054-.174-1.64-1.072z" fill="#fcdb00"/>
<path d="M167.595 86.326c1.363.911 1.072 1.906.446 3.198-.472-1.13-.569-1.97-.446-3.198z"/>
<path d="m301.232 86.65.207.058.213.077z" fill="#fcdb00"/>
<path d="M158.333 88.393c.568 1.286.904 2.274-.465 3.165-.155-1.26-.052-2.021.465-3.165z"/>
<path d="M93.097 89.77c-2.907.548-4.722 1.601-5.93 4.372a92.362 92.362 0 0 0 2.604-.77c1.298-.633 2.298-.35 4.45-.853l.18-.87c.433-1.26 0-1.886-1.304-1.88zm-2.406 2.859.055.001c.158.002-.06.002-.108.002-.065.004-.065.004 0 0 .018 0 .035-.003.053-.003z" fill="#fcdb00"/>
<path d="m175.017 90.13.251.556c.065.808-.155 1.299-.658 1.467-.375-.75-.24-1.428.407-2.022z"/>
<path d="M339.243 90.783c2.345 1.318 4.295 3.385 6.369 5.096-2.035-.058-3.785-.097-5.568-1.175.271-.355.543-.71.82-1.066-.562-.943-1.124-1.88-1.62-2.855zm-1.395 5.975c2.222.213 4.444 1.02 6.55 1.737-2.184.168-4.813-.336-6.55-1.737zm11.31.755c1.188.375 2.318.672 3.139 1.68-1.105-.026-2.216-.11-3.32-.194.051-.497.116-.995.18-1.486z" fill="#fcdb00"/>
<path d="M197.86 109.73c-.308-.016-.592.161-.853.539.452 2.777 1.401 5.303 1.26 8.184-.982-.007-2.553.479-3.354-.16-1.182-1.816-2.184-3.69-3.701-5.272-2.125 2.344-1.414 6.33-5.147 6.627-1.143-.485-1.35-2.654-1.873-3.713-.982.633-2.035 1.924-3.217 2.047-1.304-1.705-1.938-3.489-4.05-4.412-.278 1.595-.406 2.622-1.782 3.636a21.996 21.996 0 0 1-2.093-2.363c.277-.471.562-.937.84-1.408-.44-.22-.886-.439-1.325-.658-.207.471-.414.94-.627 1.406a50.25 50.25 0 0 0-2.57.504c1.892 2.04 4.089 3.32 5.277 5.955-1.498.148-2.377-.362-3.578-1.117-1.324-.93-2.751-.814-4.295-.762-.11 1.298.814 1.279 1.602 2.002.671.704 1.039 1.712 1.504 2.559-2.216 1.337-4.612 2.176-7.008 3.113.42 1.647.833 3.28 1.615 4.799.95-.517 1.821-.867 2.88-1.086.233 1.085 1.427 2.527-.097 3.16-2.028 1.053-3.119 1.885-4.256 3.906 1.97.13 3.877.091 5.84-.135.271.543.535 1.097.787 1.653-.53 1.065-1.756 1.732-2.492 2.662-.691 1.117-1.144 2.454-1.615 3.682a47.482 47.482 0 0 1 4.457-1.59c.723.53 1.452 1.054 2.176 1.584a73.14 73.14 0 0 0-.84 4.578c2.028-.336 3.915-1.059 5.86-1.692.38.86 1.272 1.926.987 2.9-.458 2.294-1.215 4.457-1.298 6.82 2.06-1.09 3.081-3.164 5.38-3.958 1.344 1.595 2.925 3.088 4.03 4.857.704 1.098.582 2.564.685 3.83.84-.038 1.686-.084 2.526-.123 1.098-2.635 2.608-5.955 5.205-7.402.42 1.834.614 3.598 1.693 5.193.678-1.079 1.272-2.241 2.047-3.262.853-.969 2.073-.802 3.242-.957.717 3.327 1.711 7.241 4.947 8.998.246-2.35.292-4.967 1.061-7.209.891-.71 1.834-.508 2.758.008 1.376.84 2.614 1.906 3.926 2.842.161-2.164-.155-4.251-.55-6.363.892-.136 1.79-.238 2.688-.303.724.782 1.214 1.648 1.77 2.54l3.164 4.482c-.335-2.879-2.168-6.724-2.608-8.287-.213-.898-.214-1.86-.285-2.778 2.416-.277 3.592 1.815 5.994 1.873-.943-2.222-3.222-3.566-2.027-6.279 1.88-.781 3.177.18 4.953.633 1.57-.594 3.016-1.523 4.508-2.285a33.293 33.293 0 0 1-1.266-3.559l9.024-.4c-1.777-2.229-5.128-4.064-4.592-7.358 1.498-.458 2.557-1.015 3.752-2.03-.704-.761-1.505-1.503-2.08-2.368-.44-1.085-.387-2.403-.516-3.559l-2.1-.35c-.096-.936-.218-1.892-.238-2.835 1.02-.989 2.537-1.163 3.377-2.461-1.4-.532-2.81-1.038-4.23-1.518.013-.872.032-1.738.045-2.603-.627-.084-1.253-.161-1.873-.239a294.52 294.52 0 0 1-2.745 3.604c-.6-.724-1.195-1.447-1.789-2.17-.749.362-2.327 2.172-3.076 1.396-1.201-2.047-1.782-4.426-3.248-6.421-.504-.582-.782-1.162-1.654-1.084-.827 2.376-1.29 4.889-1.89 7.324-.446.213-.893.433-1.339.647-.568.607-1.318 2.447-2.332 1.666-.994-2.074-1.447-4.11-3.178-5.795-.445.458-.974 2.797-1.833 2.332-1.396-1.176-1.699-3.454-2.868-4.875-.633-.801-1.667-.764-2.597-1.055-.162 1.544.567 2.77-1.131 3.598-1.273-1.15-2.138-2.699-3.43-3.803a.883.883 0 0 0-.314-.082zm-35.191 21.752c-1.866.017-.82 2.191-1.05 3.486 1.498-.471.936-2.266 1.24-3.48a3.01 3.01 0 0 0-.19-.006zm36.496 36.436c-.418-.034-.888-.004-1.442.101-1.46-.097-1.653 1.796-1.982 2.823 1.324.684 4.307 1.544 4.242 3.378-1.376 1.195-3.164 1.905-4.404 3.204.504 5.451.781 11.039-.233 16.49-.38 1.68-3.333.943-4.625 1.162 3.075 6.898 3.909 14.14 5.465 21.445.575 2.603-.49 4.772-.523 7.336 2.448 1.731 2.26 5.174 2.027 7.829-2.138.394-1.97-2.913-2.234-4.23a61.953 61.953 0 0 0-4.824-.981c.62 3.145 2.64 5.542 3.603 8.5.556 3.946.84 7.943 1.357 11.896.498 2.79-1.493 4.58-1.525 7.422-.136 4.547 2.945 9.197 2.215 14.145-1.053 7.234.988 13.932.568 21.16-.82-.032-1.633-.065-2.447-.103a50.89 50.89 0 0 0-1.744-2.66c-.478.568-.948 1.136-1.42 1.704 3.727 4.644 4.533 10.05 5.018 15.81.232 2.933.452 5.84 1.033 8.728.497 2.55-.438 5.25-.961 7.769-7.077-.098-12.637-.706-16.703-7.104-2.842-3.139-7.164-6.427-7.422-10.993-.259-2.442.936-4.075 1.898-6.155.498-1.065.44-1.674-.07-2.72-1.57 1.582-3.017 2.99-5.356 3.216-1.078-.684-2.092-1.518-3.119-2.287.504-4.302.75-8.957 2.19-13.059 1.408-3.791 5.198-6.391 7.078-9.873l-5.217.416c-.452-1.653-1.169-3.326-.859-5.07.86-5.787 4.838-12.05 8.764-17.506-4.645 2.165-7.338.409-8.733-1.975-.988-1.395-.374-2.828-.283-4.423.316-2.184.265-4.728 1.156-6.762 1.814-3.719 3.326-3 6.135-8.623-2.28.626-4.74 2.028-6.917.355-2.641-2.28-4.308-5.884-5.904-8.939-.388-.694-1.076-3.195-5.347-10.846-.692-.743-2.382-4.81-4.928-6.227 4.398 5.004 7.666 17.144 7.285 22.964-.116 2.841-.86 6.438-2.926 8.53-2.89.91-4.218.584-6.568-.199 1.576 3.307 3.764 6.143 4.894 9.676 1.092 3.036 1.828 6.593 1.053 9.778-.575 2.473-2.241 4.734-4.586 5.78-2.067.912-4.513.163-6.638-.198 1.188 2.719 2.937 4.979 3.693 7.898.969 2.842.098 5.652 1.002 8.475.517 2.022 1.26 3.85.277 5.89-1.11 2.074-2.602 3.98-3.984 5.872-.833 1.182-2.937 2.721-5.592 2.31 2.494 1.358 5.571 3.02 6.953 5.086 2.112 3.088 3.663 6.795 3.973 10.547.155 1.822-.458 3.798-.885 5.575 5.277.116 10.516.541 14.534 4.365 2.331 2.021 3.094 5.633 5.588 7.312 1.737 1.402 3.68-1.506 5.65-1.422 4.722-.303 7.234 3.082 11.316 4.432l7.383 3.824c.497 4.502 1.628 8.893 2.222 13.375.4 6.433.016 12.765-.824 19.108 2.351-.052 3.329-.101 5.68-.107 2.416.135 4.12.605 6.666.964.084-1.995-.199-3.886-.644-5.824-.556-2.35-.5-4.652-.7-7.035-.303-3.966-1.02-7.62-.671-11.625.284-3.094.298-6.19.511-9.283 2.377.038 4.845.685 7.196.388 3.778-1.873 6.162-6.11 10.244-6.924 2.635-.73 5.16-.233 7.789-.453.807-.207 1.355-1.35 1.71-2.047.04-1.26-.762-2.835.02-3.894 1.176-1.944 2.577-3.89 4.127-5.55 1.421-1.704 4.692-2.047 6.707-2.286-1.911-3.273-3.361-6.123-2.121-9.301 1.082-2.944 6.038-9.183 11.316-8.846-1.706-1.531-3.125-4.923-3.5-6.777-.465-2.57-.297-5.135-.129-7.719.43-4.97 3.281-7.64 6.168-10.361-2.093-1.867-4.748-3.152-5.84-5.807-.943-2.15-2.467-3.442-2.925-5.748-1.118-5.426-1.759-9.328 1.402-14.223-2.035.189-8.147-1.505-8.707-6.453-.187-5.432 1.238-15.293 2.846-22.234-1.59 3.698-4.932 12.043-5.514 14.549-1.176 4.63-2.556 6.99-4.553 11.898-2.635 1.738-4.322 2.106-7.332.924-.68-1.15-1.37-2.294-2.072-3.43-.575.162-1.145.336-1.713.53-.065 1.137.434 2.009.867 3.03 2.158 4.591 4.547 8.893 8.319 12.374l1.705 3.598c.575 1.995.355 4.314.271 6.375-1.169.226-2.415.555-3.603.51-1.363-.24-3.867-1.185-5.242-1.41-.165 2.33 6.481 5.674 9.425 11.712 1.615 3.249 1.434 6.478 1.473 10.011-.433 1.337-1.413 2.945-2.395 3.946-1.776 1.31-3.993.014-5.963-.219.562 2.3 1.628 4.302 1.913 6.686.406 3.352.466 6.89.117 10.25-1.053 1.937-5.09 1.657-7.373 1.705 1.405 3.042 1.487 7.046-.586 9.049-1.906 1.795-3.837 3.132-4.715 5.748-2.351 1.078-4.772 2.642-7.336 3.088-.833.213-1.686-.788-1.893-1.518-.058-.86.497-1.732.768-2.533-.581-.607-1.169-1.213-1.75-1.82 1.35-3.721.206-7.248.974-11.104-.432-.272-.865-.55-1.304-.82.749-5.594 3.043-10.955 3.754-16.555-1.337.252-2.674.517-4.018.775 1.163-9.016 3.29-20.416 4.764-29.918l-3.059 2.1c-1.356 1.964-1.666 4.024-4.082 5.045.472-2.558 1.794-4.631 1.865-7.15.136-2.532-.374-5.251.059-7.745.31-.658 1.097-1.046 1.646-1.511-1.718-2.087-1.214-4.425-.904-6.898.323-2.248 1.119-4.308 2.01-6.381.807-1.79.433-3.438.29-5.31.905-1.222 2.577-3.881 3.184-5.276-2.252.348-4.359 1.656-5.322 2.57-.191-2.293.426-3.005.278-4.322.064-4.535.348-9.035 1.117-13.518.775-3.584.023-6.753 3.236-10.611-.936.232-2.576.716-3.525.87-.51-.67-.486-1.776-.68-2.583-.245-1.97-.78-4.172-.393-6.13.75-3.842 1.872-8.035 1.698-11.962.316-2.415-3.636-2.72-2.803-5.193 1.182-1.77 3.037-1.976 3.018-4.508-1.99-.058-3.573.168-5.4.924l-.555-.156c-1.124-1.076-1.905-1.769-3.159-1.871zm136.16 24.388v3.85h3.85v-3.85zm-2.79 3.57c.233 1.467-.214 4.09.813 5.188l1.215-.47c.187-1.525.135-3.103.09-4.633-.705-.04-1.41-.069-2.117-.084zm-7.692.3c-1.531.064-.71.89-.782 1.923-.478.123-.955.239-1.433.362-.775 1.937-1.338 2.977.263 4.714 1.563-.658 2.958-1.348 4.127-2.601l1.752-.02c.44-.568 1.02-1.125 1.291-1.797-.37-.59-.792-1.148-1.26-1.666-.684.95-1.13 1.9-1.511 3.004l-2.215-.834c-.071-1.033-.136-2.059-.232-3.086zm-182.69 1.122c-1.37.866-2.396 2.087-3.268 3.43-1.124 1.647.95 1.608 1.99 1.162 1.925-.788 1.853-2.886 1.278-4.592zm176.72 1.44c-1.886.84-2.014 2.817-2.906 4.51-.859 2.067-2.325 3.486-4.67 3.57-.213-1.395-.387-2.828-.722-4.197-1.383-1.04-1.532.787-2.12 1.627-.432 1.233-2.169 3.011-3.544 2.404-1.13-1.666-1.538-3.877-2.184-5.77l-1.402-.019c-.82 1.925-1.588 6.007-4.094 6.291-1.783-2.752-3.018-6.122-6.008-7.963.536 3.25 1.853 5.962 1.459 9.38a9.021 9.021 0 0 1-1.717-.305c-1.815-3.165-3.721-5.793-7.352-6.995-.083 2.442 1.784 3.958 1.3 6.47-1.712.24-2.99-.302-4.553-.85-.892.116-1.19 1.432-1.674 2.072-1.486-2.093-1.848-4.624-3.366-6.698-.523.892-.994 1.847-1.62 2.674-1.441.782-3.23 1.027-4.67 1.828-.84.892-1.176 2.268-1.854 3.301-1.395.323-2.77.11-4.088.82 1.376 1.234 2.83 1.93 3.049 3.965-1.266 1.105-2.52 1.835-3.102 3.514 1.538.413 3.373.355 4.284 1.873.284.562 1.11 1.621.619 2.209-1.034 1.079-2.55 1.784-3.842 2.514-.4 1.388-.827 2.77-1.285 4.14 3.358.381 6.135-1.048 9.39-1.396.11 4.095-2.26 7.59-2.027 11.775a4.67 4.67 0 0 0 1.33-.49c1.266-1.692 2.274-3.722 4.328-4.639 2.52 1.731 1.769 4.374 3.086 6.848 1.596-1.615 3.089-2.255 5.356-2.365 1.55 1.26 2.415 3.527 3.494 5.193 1.078-1.272 1.872-2.725 2.847-4.068 1.383 1.033 2.307 1.393 4.032 1.613a31.87 31.87 0 0 0-.485 4.955c1.538-1.595 1.563-3.765 3.391-5.096.375.633.743 1.266 1.117 1.899 1.079-.91 2.06-1.712 3.469-2.041.245 1.324.594 2.455 1.246 3.637.627.064 1.254.128 1.88.199-.012-2.287.123-4.515.466-6.776.91.033 1.814.065 2.724.104.801 1.253 1.563 2.215 2.862 2.99.18-2.112-.582-3.914-.944-5.936.175-.503.543-.904 1.092-1.195 2.054.775 3.256 2.488 5.678 2.45-.504-1.577-1.576-2.798-.568-4.432.813-.898 1.976.033 2.835.414 1.454.833 2.888 1.659 4.477 2.22-.64-3.552-3.896-4.986-4.851-8.416.445-.251.891-.51 1.343-.761l.078-1.977c-1.02-.058-2.034-.11-3.048-.168-.304-.549-.602-1.098-.899-1.64.904.161 1.802.316 2.713.459-.769-2.222-3.623-2.378-4.191-5 .38-2.06 3.57-1.137 5.017-1.227-1.699-2.035-4.373-1.866-5.53-4.617 2.526-1.079 5.065-1.681 7.823-1.203l.014 1.138c-1.905.252-3.85.277-5.762.451.892 1.796 3.656 2.293 5.258 3.391 1.492.724 1.964 2.03 2.688 3.399 3.12.245 5.915 1.323 8.847 2.298 0 0-2.685-4.347-7.142-6.175 0-.853-.008-1.704-.008-2.557 1.996-.31 4.012-.524 6.008-.86-1.731-1.362-4.503-1.24-6.615-1.718.038-.6.077-1.2.123-1.8.742-.324 7.785.406 6.861-1.034-1.124-1.014-6.545-2.127-7.934-2.72-1.343-.291-2.846-.051-4.222-.057.122-.614.25-1.235.373-1.848a83.59 83.59 0 0 1-1.957-3.586zm-225.82 2.613a.773.773 0 0 0-.454.158c-.485.698.085 1.888.75 2.282 1.187.022.701-2.428-.295-2.44zm238.78.016c-1.983.032-2.118-.057-3.022 1.687l2.305.678zm-251.04.69a3.48 3.48 0 0 0-.545.08c.827 1.834 1.97 3.501 2.816 5.335.678 1.783 2.623 1.704 4.225 1.866 2.099-.11 4.133-1.492 6.42-1.06.768.608 1.472 1.325 2.17 2.017.11.387.212.774.322 1.162-2.196.303-4.236 1.033-6.322 1.73-.4.904-.796 1.815-1.19 2.719 1.654.058 3.411-.005 5.02.389 1.26.368 1.808 1.342 2.609 2.279-3.223-.665-6.124-.905-8.7 1.498 1.259.865 2.46 1.783 3.532 2.88-1.117.427-2.118.918-3.093 1.616.781.71 1.562 1.414 2.337 2.13-.955.395-1.574.486-2.542.118-.814-.413-1.81-.265-1.68-1.453.6-1.053 1.02-1.925 1.148-3.158-1.26-.562-4.106-.82-4.642-2.145 1.679-1.304 3.267-2.234 4.107-4.314-1.712-.575-3.358-1.13-5.2-1.008-.006 1.053.42 2.41-.052 3.365-1.046.55-2.143.833-3.273 1.137.575-.73 1.213-1.428 1.71-2.209-.523-.627-1.11-1.221-1.68-1.803-2.35.982-4.623 1.44-7.156 1.686-2.525.265-4.98 1.298-5.826 3.894 1.318.66 3.372-.432 4.774-.697a86.018 86.018 0 0 1-.73 3.094c1.039 1.02 2.15 1.33 3.526 1.685l-.097 1.332a17.008 17.008 0 0 0-2.422 3.358l1.976.814c1.835-1.375 3.133-2.08 5.51-2.17.181 2.649-.103 5.284.11 7.932 1.866-1.092 3.12-2.796 4.896-4.004.155 2.37.051 4.74.11 7.117.452-.013.903-.019 1.35-.025.387-1.55.257-3.47 2.485-3.14.291 2.912-.87 5.348 1.086 7.822a20.574 20.574 0 0 1 3.715-1.66c.2-1.951.117-2.57-1.053-4.127-1.382-1.596-.898-3.552-.013-5.264.704 1.337.278 2.506.142 3.914 2.19 1.511 3.952.581 6.342.484 1.66.259 1.435 3.14 1.338 4.329-.6-.64-1.014-1.352-1.408-2.133.174-.427.348-.852.516-1.272-1.008.039-2.016.084-3.03.13.252 2.86 1.544 5.282 2.268 8.124 1.389-.052 2.255-.503 3.23-1.465.485-1.053.497-2.36.678-3.496 2.823-.685 3.112 2.32 3.9 4.238.698.065 1.389.135 2.086.2.013-.963.035-1.926.067-2.881 1.427.671 1.123 2.384 1.44 3.675h2.491a115.9 115.9 0 0 1-.722-4.191c2.022.659 3.675 1.705 5.787 1.982-.562-1.944-2.84-3.5-1.904-5.703 1.853-.717 4.274 1.021 6.238 1.235.31-1.415.167-2.682 1.395-3.676 1.207 1.091 2.752 2.84 4.554 1.943-2.26-1.892-3.908-3.758-4.056-6.865 2.338.349 3.868 1.763 5.896 2.822-.02-1.563-.103-3.112-.322-4.662 2.344-.988 4.004 1.639 6.445 2.162-1.376-3.01-3.655-5.09-4.088-8.584 2.403-.142 4.806-.116 7.21-.154-.757-1.828-2.275-2.654-3.864-3.668-1.544-1.24-3.688.463-5.309.877-.09.943.93 5.123-1.027 4.4-.181-2.228.071-4.683-.484-6.854-.446-1.576-2.862-2.086-4.122-2.88.801-.692 1.674-1.325 2.41-2.08.453-1.015.858-2.048 1.381-3.03.369.55.738 1.1 1.106 1.655.865.38 2.861.082 2.674 1.4-1.505.575-3.094.685-4.528 1.492 1.221 1.02 2.37 2.08 3.998 2.357 2.855.666 5.915-.942 8.81-1.543.264-.955-.44-1.007-1.054-1.498-1.453-.988-3.389-.847-4.855-1.648-1.22-1.654 1.601-2.583 1.543-4.147-.362-.897-.84-1.718-1.156-2.628.122-.956.336-1.886.543-2.823a18.63 18.63 0 0 0-1.815.13c-2.222 2.628-4.425 5.508-8.326 4.779-.258-1.144-.382-2.214-.957-3.254-.969-.046-1.136 1.271-1.652 1.923-.911 1.654-2.474 2.378-4.315 2.436a18.307 18.307 0 0 0-1.416-2.959c-1.453 1.279-2.55 2.32-4.662 1.836-.86-.736-1.705-1.474-2.654-2.094-1.002 1.712-2.004 3.178-3.754 4.205-.853-.497-1.73-1.215-2.705-1.447-1.628-.103-3.611.466-5.13-.154-2.44-1.312-3.816-3.695-6.504-4.735-.31.866-.212 2.5-1.285 2.823-2.252-1.078-4.432-4.03-7.123-3.846zm-6.598 3.12a.811.811 0 0 0-.27.059c-.189.777-.355 1.56-.498 2.346-.568.084-1.142.16-1.71.244-.104.542-.207 1.078-.317 1.62-2.287.673-5.35 1.649-5.44 4.517 1.932.387 3.825 1.04 5.776 1.324.93-.517 1.516-1.596 2.62-1.783 4.664-1.28 8.584.077 13.26-.149.298-.71.602-1.42.899-2.13-3.204-.505-6.374-.996-9.623-1.028-1.182-.2-2.236.343-2.746-1.02 1.033-.264 2.325-.265 3.236-.853.097-.523.161-1.052.193-1.588-1.195-.174-2.3-.168-3.384-.756-.594-.192-1.35-.835-1.996-.803zm243.63 12.81c-.187 1.64 1.899 1.562 2.803 2.525.472.885.82 1.836 1.299 2.72.652.84 3.384.22 2.318-1.156-1.227-2.726-3.52-3.954-6.42-4.09zm-24.629 31.785c.259 1.737 1.24 4.016.692 5.709-.962.975-2.163 1.724-3.12 2.713.983 4.786 3.113 9.36 3.966 14.191.206 1.48-.581 3.127-.975 4.541.426 1.047 1.104 2.021.91 3.203-1.705 1.583-3.85 2.706-5.697 4.133 1.24 3.714 2.623 7.384 3.967 11.059 1.408 3.675 1.078 8.099.271 11.87-.743 1.473-4.043.803-5.47.958 1.885 1.847 3.603 3.577 4.314 6.213.95 3.623 1.899 7.299 2.525 10.994.272 1.04-.388 1.459-.976 2.15-.105.55-.206 1.1-.303 1.652-1.815-.09-3.864-.87-4.779-.622 1.615 4.522 6.885 11.707 6.226 16.85-.168 2.104-2.468 3.41-3.572 5.133-.258 1.641 1.822 2.686 1.492 4.534-.2 4.792 1.983 9.01 1.363 13.861-1.479-1.42-2.12-3.526-3.289-5.244-4.547.465-7.763-3.792-9.804-7.268-1.48-2.467-1.555-6.956-.77-9.636-3.136 1.821-4.675 1.473-6.115.433-3.288-1.918-5.855-8.5-8.51-11.207-.9 2.394-2.47 4.78-5.164 4.832-2.448-.413-4.683-2.28-7.13-2.836-1.926 1.13-2.624 3.643-5.13 3.598-2.945.53-4.94-1.402-7.756-1.389-5.563-.34-8.47 1.28-10.417 5.74 5.83-.866 5.948-1.775 8.55-.935 3.936 1.028 5.354 2.2 5.743 6.447 2.549-1.068 6.175-1.227 8.455.258 2.267 1.182 2.822 4.335 3.855 6.518 3.978-1.035 8.613-2.248 11.95 1.02 2.818 3.304 4.651 6.22 4.244 10.691 4.824-1.214 9.384-1.758 14.351-.957 1.919 2.913 5.316 4.373 6.963 7.344 1.628 3.908 2.661 7.97 3.242 12.162 3.262 1.912 5.328 4.748 8.131 7.21.29-3.43.866-6.849 1.066-10.279.136-3.416-2.653-5.404-3.416-8.388.078-1.098.361-2.132.516-3.237.258-2.248-.806-4.818-.309-7.052.427-1.97.385-4.374 1.82-5.807 2.036-2.03 5.367-2.404 8.237-2.565 3.924-.218 8.334 2.302 11.577 2.231.155-.943-2.037-3.717-1.533-4.537 1.194-.982 2.557-1.795 3.92-2.53 3.772-1.836 8.584-.893 12.279-3.263.943-.504 1.395-1.267 1.867-2.184-2.39-.194-4.78-.33-7.176-.433-.381-1.57-.892-3.242-.963-4.864.891-1.744 2.125-3.54 3.54-4.902 1.039-.89 1.917-.259 3.099-.123 1.498-1.31 2.694-3.01 4.302-4.166 3.2-1.648 8.433-2.372 10.186-5.828-.825.237-4.933-.377-6.226-.586-.2-4.128-.323-8.505 2.04-12.11 2.132-2.99 6.253-5.67 6.415-9.63-1.957-.214-3.992-.22-5.916-.64-.976-.645-2.223-2.673-2.223-2.673 2.846-7.195 4.397-14.223 6.996-22.1-1.966 1.353-6.743 3.776-9.171 4.196-2.06-3.172-4.73-5.97-6.57-9.244-2.791-5.94-5.655-11.59-9.985-16.73 1.376 6.69 5.903 15.51 4.844 22.614-2.526.892-5.122 1.028-7.744 1.448.956 1.492 2.125 2.848 3.029 4.373 2.72 5.27 2.894 10.91 2.125 16.683-2.1 1.124-4.334 1.452-6.652 1.801.355 2.655 1.53 5.026 2.053 7.635-.407.426-.813.847-1.213 1.273.943.665 2.19.82 2.19 2.215.374 2.32-.236 4.623-1.737 6.122-1.381 1.379-3.762 1.221-5.635 1.59.452 4.41 1.184 9.18.951 13.622-.29 3.333-2.726 5.005-5.42 6.465-2.868 1.486-6.415 4.515-9.69 4.56-3.584-3.603-5.359-8.538-4.455-13.615.33-3.766 2.557-6.757 3.268-10.34-.827-1.726-4.593-1.595-5.826-3.339.129-1.957 1.097-3.844 1.517-5.762.924-4.599 2.94-8.598 3.043-13.377a305.753 305.753 0 0 1-3.398-.155c.174-3.642.343-7.319.705-10.949.51-4.67 3.82-11.94 6.636-16.248-3.932.308-4.985 1.806-6.58 1.133.529-2.329.441-6.213.68-8.24-.668-.273-1.338-.542-2.01-.807-.141-.995-.108-1.686.221-2.649.724-2.054 1.15-4.166 1.518-6.31-.743-.265-1.485-.53-2.234-.79-.046-2.596.232-4.78.923-7.279-2.577.116-5.135-.09-7.712-.154zm-194.17 1.414c1.26 3.817 3.151 7.402 4.32 11.271-.969.485-2.279.768-2.763 1.84-.459 1.247.348 2.489.716 3.664.989 2.5.885 5.004.93 7.653.04 5.218.142 10.093 0 15.896-2.293-1.511-5.123-4.433-7.873-7.472.769 2.008 3.85 6.813 4.8 8.763 2.841 5.29 5.644 11.607 5.663 17.691-.026 3.088-1.091 5.362-3.617 7.15a20.516 20.516 0 0 0-1.266-1.71c-.975-.291-2.425-.138-4.63-2.534 1.875 3.162 4.218 6.31 5.277 9.004 2.364 5.658 2.88 12.176 2.744 18.254l-2.17-.098c-.497-.95-.962-1.996-1.646-2.836a35.354 35.354 0 0 0-1.842-.017c1.188 3.481 3.12 6.51 4.89 9.701 1.215 2.403 2.068 4.856 1.3 7.562-.408 1.473.076 3.166-.473 4.541a6.132 6.132 0 0 1-1.924.44c-.465-.652-.75-1.454-.865-2.39a150.44 150.44 0 0 0-3.424-.208c-4.286-4.04-9.358-10.698-9.399-15.094-2.267-.562-4.714-.826-6.425-2.576-1.318-1.285-1.803-2.857-1.997-4.652-.206-2.112-1.395-3.65-1.24-5.807.13-3.843 1.945-7.8 3.217-11.398-3.223-2.487-6.22-4.588-7.472-8.695-1.409-5.335.15-12.71 2.755-17.137-3.497.11-6.025-2.007-7.31-4.184-2.472-6.72-.516-19.662-.877-29.217-1.835 6.057-4.212 12.395-5.84 18.883-.387.918-.614 2.357-1.447 2.952-2.784 1.2-8.557 3.307-13.375 2.15-.123.924 6.64 2.544 7.125 3.248 3.688 3.953 2.563 10.296.916 15.057-1.176 3.139-5.775 3.597-8.578 4.23 1.853 1.524 4.081 2.416 5.935 3.953 5.264 4.173 8.99 10.742 8.61 17.582-.233 3.327-1.706 5.924-4.69 7.487 3.371 2.428 7.796 3.19 10.367 6.523 2.041 3.217 1.511 7.131.026 10.458 4.327.174 8.39-.161 12.71.627 1.33.633 2.326 2.156 3.315 3.228 2.19 2.067.122 6.575 2.86 8.1 3.347 2.08 8.436 1.123 11.866 3.035 2.635 1.479 3.991 4.6 4.863 7.351.989 2.888 1.1 5.905 2.223 8.747.659 1.685 1.098 3.538 1.983 5.127 2.732-1.46 5.515-2.816 8.228-4.301-.736-4.25-2.092-8.46-1.355-12.795.523-2.603 3.585-4.257 6.058-4.303 3.088-.097 5.386 1.609 8.305 1.957-.316-.975-.767-1.918-1.213-2.841 5.427-1.521 9.976-2.495 15.618-.737-.465-1.912-1.156-3.997.013-5.812 2.423-.814 5.083-1.319 7.64-1.15 3.573.31 5.581 3.333 9.282 3.423.24-1.963.258-5.393 1.918-6.736 3.417-1.511 9.543-1.447 15.381.348-1.59-3.127-2.388-3.963-3.219-5.037-3.339-.31-7.247-.246-10.373-1.538-2.086-.84-3.603-2.726-3.603-5.025.859-2.106.763-2.96 1.82-6.187-2.913 1.278-5.405 3.693-8.027 5.457-2.377.49-5.432.188-7.092-1.801-1.466-1.421-2.004-1.813-2.172-3.844-.13.75-1.876 2.952-2.422 3.656-1.905 1.33-3.63 3.016-5.664 4.133-2.416 1.227-5.683 1.08-8.338 1.17-.504 3.12-.692 6.8-2.113 9.643-1.034 1.73-2.583 3.1-3.668 4.812-2.57.704-5.09.535-7.7.219-.122-3.1-1.297-5.85-1.82-8.848-.458-3.39 1.878-5.776 1.658-9.05-.142-5.045-1.374-9.927-2.013-14.862.09-5.477 4.436-11.263 3.59-16.799-1.402 1.35-1.975 3.43-4.139 3.41-.426-5.696-.627-11.574.09-17.252.956-.484 1.801-.783 2.28-1.816 1.627-3.19 2.15-7.111 3.275-10.426-1.628 1.66-4.684 2.882-6.473 4.367-1.673-2.022-1.316-4.237-1.4-6.691.084-2.726-.17-5.231.793-7.815 1.201-3.062.11-6.434 1.388-9.605.653-1.247 1.455-2.396 2.004-3.707-.73.038-1.46.077-2.19.123-1.046 1.408-1.31 2.512-3.365 2.19-.549-4.193-.568-7.914.213-12.073-2.428.07-4.684.522-7.015 1.181-.808-.407-1.614-.82-2.448-1.181zm103.47 116.19c-3.007-.076-6.012.2-8.954.825-13.919 2.642-25.854 12.91-30.595 26.262-.478 1.33-.815 2.63-1.823 3.689-3.404-3.03-6.93-5.78-11.07-7.744-7.64-3.643-16.625-5.09-24.97-3.444-10.89 1.667-20.92 8.514-27.03 17.602-3.552 5.615-6.003 11.824-6.662 18.447 25.955 25.935 57.066 47.268 92.325 64.784 4.941 2.05 9.94 3.973 14.988 5.768 1.299.536 2.634-.279 3.868-.666 5.037-1.83 10.02-3.82 14.957-5.92 35.93-18.405 67.49-40.537 93.63-67.206-1.173-7.226-4.752-13.952-9.397-19.56-3.32-3.437-6.905-6.55-11.123-8.837-12.246-6.937-27.87-6.673-40.026.329-3.378 1.763-5.995 4.32-9.037 6.543-1.854-4.296-3.255-9.372-6.213-13.008-7.263-10.88-19.917-17.55-32.87-17.863z" fill="#094"/>
<path d="M182.244 121.586c2.028.175 3.74.995 5.548 1.854.02.51.04 1.014.065 1.524l-2.907.252c-.064.633-.135 1.266-.2 1.9-2.118.483-4.27.664-6.414.974 1.544 1.092 3.023.31 3.236 2.797-1.88.866-3.08.833-3.41 3.197 1.589.207 3.23.259 4.793.607 1.42.698 2.06 1.79 2.17 3.36-2.971.115-5.568.012-6.944 3.132 3.327 1.188 6.078-.162 9.411-.155-.29 2.39-3.32 2.803-4.237 4.754l.42 1.085c2.577-.246 5.006-1.182 7.622-1.273a91.546 91.546 0 0 1-1.886 3.727c-2.087-1.55-3.727-.51-5.994-.355-1.286-.284-1.822-1.854-3.295-2.119a194.489 194.489 0 0 1-.213-3.352c-.988-.258-2.08-.387-2.997-.846-.988-1.014-.859-2.177-.975-3.481 1.247-.743 2.345-1.331 2.952-2.726-1.621-.407-4.237-.375-5.445-1.615.381-1.73 2.177-2.92 2.706-4.521-.187-1.098-.523-2.17-.73-3.268 1.189-1.157 3.262-1.408 4.567-2.61-.743-.413-1.337-1.234-2.26-.872-1.816.633-3.372 1.066-5.33.943.078-.549.15-1.098.227-1.64 3.197-.595 6.271-1.622 9.52-1.273zm43.592 1.918c1.343-.193 3.113-.167 4.45.078.678.627 1.26 1.382 1.647 2.215.582 1.434-.904 1.925-1.937 1.396-.575-.692-.692-1.744-.989-2.578-1.22-.084-2.448-.161-3.668-.264zm1.789 5.904a33.912 33.912 0 0 1 2.144-.013c.924 1.079 2.765 2.435 2.067 4.011-.749.265-1.518.162-2.306-.316.31-.44.627-.879.944-1.318-.963-.652-2.571-1.13-2.849-2.364z"/>
<path d="M192.591 129.563c.601-.077 1.13.058 1.583.42.859 1.75 1.085 3.462.633 5.36.814 1.325 1.724 2.345 1.66 3.999-.103.859-.827 1.608-1.279 2.332.872.426 2.971.587 3.275 1.576-.29 1.15-1.376 2.112-2.06 3.068.568 0 1.136.006 1.704.013l.872-1.57c1.402.736 2.739.975 3.236 2.668-2.35.29-4.695.762-7.06.91-1.214-.568-2.28-1.601-3.067-2.68-.078-.898.239-1.847.407-2.732-1.08-.44-2.3-.343-2.771-1.563-.911-1.673.168-2.907.277-4.625-.368-1.156-1.085-2.26-1.679-3.32.775-.381 1.576-.73 2.319-1.182.969-.51.975-2.26 1.95-2.674zm32.457 2.707c1.873.613 3.559 1.866 4.87 3.32.556 1.743-2.687 1.898-3.5.93-.601-1.363-1.021-2.81-1.37-4.25zm-3.217 1.64c.465-.013.924-.013 1.383 0 .755.962 1.492 1.963 2.099 3.03.439.632.38 2.047-.743 1.517a31.229 31.229 0 0 1-2.739-4.547zm68.569 17.207c1.33.271 1.944.316 2.338 1.782l.168.569c-.22.859-.239 1.757-.058 2.7l-.052.69c-.536-.057-.994.15-1.375.614l-.149-.607c.317-.678.174-1.182-.433-1.524l-.4-1.214-.071-.388a15.47 15.47 0 0 1 .032-2.622zm-193.318 5.257 1.15-.516-.459 1.078zm238.712 12.033c.446 1.015.362 1.77-.304 2.655l-.387-1.279c.039-.665.271-1.124.691-1.376zm-202.716 1.389.265.51-.807.956c-1.176-.723-.93-1.873.542-1.466zm3.766.517c.542.194 1.079.407 1.608.633-.006.717-.02 1.434-.052 2.15-1.504-.42-1.123-1.543-1.556-2.783z"/>
<path d="m140.551 171.773.162.29z" fill="#fff"/>
<path d="M318.038 172.774c1.725.684 1.647.736 1.906 2.57l-1.673.097a39.942 39.942 0 0 0-.207-1.95zm-203.31 1.324.633.898c.995 2.209 1.066 4.437 1.66 6.756-.09 2.435.252 5.05-.316 7.428-.704-.782-1.124-1.273-2.216-1.434l-.194-1.034c.162-4.14-.348-8.57.433-12.614zm-10.115 1.066.595-.685c.07.678.148 1.356.226 2.035.69.445 1.776.594 1.828 1.588.361 2.087.58 4.321.22 6.427l-.77.02c-.432-1.24-.329-2.461-.342-3.747-1.182 2.442-.852 5.025-1.602 7.635.679 3.036 2.035 5.62 1.473 8.926a14.355 14.355 0 0 1-1.57-2.002l-.232-.717c-.213.717-.381 1.44-.504 2.177-.49 2.202.058 4.043-2.409 5.063l-1.04-.012c-.174-.776-.349-1.557-.517-2.332.175-1.55 1.28-2.474 1.066-3.972l-.064-.808c-.433-2.971-.123-5.871.012-8.842l.524.2.549.2c.22.278.439.556.646.84.697 1.163 1.395.452 1.369-.607l.13-1.337c.477-3.352.341-6.685.412-10.05zm-9.068 2.234.155.478c.258 1.118.097 1.822-.49 2.119-.395-.86-.492-1.964.335-2.597zm34.898.847c.633-.162.917.167.865 1-.613.188-.897-.148-.865-1zm183.184.29c.606 1.091.783 1.873 1.091 2.778-.194 1.2-.482 2.283-.148 3.404-.689 3.655-.376 4.136-.653 7.092-.652-.343-.943-.82-.878-1.434-.078-2.397.136-4.754-.22-7.138l-.064-.574zm-216.125 1.402c-.032 1.253-.052 2.5-.058 3.752l-.2-.032c-.149-.962.155-2.267-.782-2.848l-.445-.304c.497-.18.988-.368 1.485-.568zm222.487 1.085.471.258.181.588c.052 1.247.556 2.674-1.37 2.022a28.583 28.583 0 0 1-.193-1.822zM90.462 194.857l-.349.484zm32.611 15.715c.53.478.833.982 1.085 1.653a63.56 63.56 0 0 1-2.441.562c.44-.749.872-1.498 1.356-2.215zm154.131.194-.097 2.215c-2.099.465-4.495.53-6.33 1.595 2.055 1.253 4.005 1.318 6.343 1.228.007.555 0 1.11-.019 1.672-1.337 1.286-2.848 2.19-3.843 3.824 2.693 1.266 4.98.104 7.796.11.523 1.628-1.408 1.931-2.351 2.764-2.416 1.531-1.608 5.91-4.076 7.138-.594-3.152 1.518-4.993 1.938-8.087a64.248 64.248 0 0 1-5.684-.174c-.168-2.526 2.274-3.275 2.358-5.768-.898-.31-2.5-.304-2.997-1.215-.304-.981-.73-1.95.187-2.745 2.047-2.04 3.862-2.68 6.775-2.557zm7.118.342c1.24-.284 2.584-.491 3.856-.342 1.744.742 3.553 1.802 5.019 2.997 1.124 1.466-1.938 1.182-2.687 1.479-.233 1.46-.485 2.215-1.511 3.287.316.834 1.007 1.796.923 2.7-1.04.685-2.467.86-3.656 1.189 1.001 2.59 4.877 2.35 7.157 2.77a9.934 9.934 0 0 1-.233 2.494c-1.085.781-2.234.736-3.507.736-.148-.762-.303-1.524-.452-2.286-1.705-.285-3.617-.272-4.98-1.48-.923-.704-1.007-2.047-1.311-3.12a20.586 20.586 0 0 0 2.047-1.775c-.93-.149-1.86-.298-2.79-.433.007-.82.02-1.64.032-2.461a18.206 18.206 0 0 0 3.747-1.763c-.924-1.331-2.132-2.184-1.654-3.992zM78.72 222.482a73.87 73.87 0 0 1 3.584.065c-.555 1.078-1.666 3.933-3.288 3.268-.174-1.11-.226-2.209-.297-3.333zm-3.527.788.484-.245.485.265-.007.51-.484.245-.485-.265zm239.648.543c1.169.755 2.17 1.098 2.015 2.758-.82 1.524-2.551 2.725-4.314 2.77 1.388-1.872 2.209-3.08 2.299-5.528z"/>
<path d="M283.315 224.962c.917 1.55.58 3.417.555 5.135 1.44-.303 2.752-.4 4.224-.27.097 1.452.304 3.003.084 4.443-.368 1.163-1.937 1.582-2.958 1.957-.278-.93-.51-1.821-.924-2.7-1.401.44-2.66 1.066-4.166 1.092-.077-2.067.168-3.882.71-5.872-.897-.18-1.808-.342-2.68-.613-.465-.866-1.027-1.841.084-2.493 1.273-.704 3.805-1.744 5.07-.679zm-199.48.278c.542 1.318.827 2.545.969 3.966-1.783.071-2.384-.982-3.45-2.15.737-.75 1.57-1.312 2.48-1.816zm11.93.343c.316 2.215.077 4.366-.04 6.581l1.712-.058a47.915 47.915 0 0 0 1.945-3.966c.374-.026.742-.051 1.11-.084a61.58 61.58 0 0 0 .433 4.754c.892-.174 1.783-.349 2.68-.51-.968 1.621-1.491 1.867-3.313 2.325-1.828-2.047-3.675-1.602-6.162-1.615.033-2.286.04-5.632 1.635-7.427zm-5.652 4.902c.962-.904 2.293 1.705 1.027 1.99-1.079.064-1.589-1.15-1.027-1.99zm203.781 3.895c.756 1.072 2.946 3.003 2.19 4.424-.49 1.247-2.009.607-3.01.704-.039-1.821-.187-3.5.82-5.128zm-130.368 2.506h2.545v2.622h-2.545v-2.622zm-4.456 2.17.51-.013.27.478-.238.49-.51.007-.272-.478zm5.147 1.111c.95-.413 1.415-.226 1.389.562.129 2.196 0 4.683-.433 6.84a4.25 4.25 0 0 1-1.666.53c-.013-2.655-.052-5.361.71-7.932zm-3.888 1.324c1.175-.775 1.892.95.549 1.279-.743-.187-.924-.614-.55-1.279zm81.338 1.13c1.143.291.924 1.86.013 2.32-.814-.42-1.092-2.074-.013-2.32zm-3.824.943c.866-.439 1.544.905 1.008 1.557-.988.627-1.725-.846-1.008-1.557zm-76.81.414c1.078-.86 1.711 1.175.523 1.427-.678-.232-.853-.71-.523-1.427zm.374 2.364.847.077c.852 1.867.781 3.023 2.854 3.966-.594 1.931-1 3.934-1.711 5.826a4.867 4.867 0 0 1-1.854.233c.097-3.36-.44-6.77-.136-10.102zm77.618-.032c.904.07 1.809.135 2.707.2-.078 1.027-.149 2.06-.227 3.087-.613.065-1.22.123-1.827.18-.22-1.155-.433-2.311-.653-3.468zm2.048 10.599c2.021-.536 1.892 2.428 2.344 3.714-.788.038-1.57.07-2.35.11-.04-1.28-.085-2.545.006-3.824zm-80.014 2.557c1.156-.846 1.756 1.06.49 1.35-.684-.18-.846-.626-.49-1.35zm-.181 1.874.93 1.291c-.523 2.164-.879 4.231-.84 6.472.737 0 2.92-1.072 3.113.11-.335 1.55-1.66 2.83-2.105 4.392-1.408 4.276-1.55 8.868-2.765 13.228 1.783 1.014 1.46 2.552 1.9 4.295.787 4.67 2.815 9.146 5.477 13.041 3.126 4.534 7.305 7.796 11.716 10.98.007 1.363-1.053 1.04-1.88.543-1.918-1.324-4.081-1.938-6.155-2.926-4.97-3.554-8.273-8.598-11.89-19.073-1.054-1.544-2.197-2.997-3.024-4.683-2.519-1.37-3.462-3.785-4.166-6.414 2.79.646 4.108 2.971 6.233 4.722.181-5.407-.129-10.826.168-16.225.6-.11 1.202-.214 1.802-.323.678-3.081.33-6.505 1.486-9.43zm82.636 1.278c-.077 2.545-.93 4.735.762 6.95a96.59 96.59 0 0 1 1.46-.336c-.691 2.119-2.273 3.501-2.661 5.736-.433 1.234-.388 3.326-1.402 4.179-.794-.388-.264-2.112-.439-2.88-.058-3.392-1.737-5.865-2.202-9.218 1.04.614 1.692 1.531 2.525 2.377.323-2.286-.142-4.43-.374-6.685.478-1.085 1.504-.232 2.331-.123z"/>
<path d="M156.466 262.767a23.31 23.31 0 0 1 1.499.09c.2 1.719 1.33 4.166.413 5.762-1.524-1.583-1.996-3.72-1.912-5.852zm7.79 3.294c1.711-.91 1.298 2.112-.039 1.589-.407-.523-.387-1.053.039-1.589zm81.39 1.279c1.156-.775 1.88 1.02.536 1.298-.73-.2-.91-.633-.536-1.298zm-5.704 17.465 1.066-.136c-.032 1.75-1.279 3.417-1.485 5.148.277.905.652 1.764 1.02 2.636-2.984 2.086-3.281 5.109-5.019 8.054-.22.588-.723.678-1.524.265.465-2.623 1.33-5.18 1.996-7.758.478-.11.95-.213 1.427-.316.692-2.661 1.421-5.367 2.52-7.893zm2.578 4.399c1.194-.026.6 2.357-.278 2.448-1.143-.291-.672-2.177.278-2.448zm99.869 1.963c.458 1.15.917 2.267 1.64 3.275.194-.62.381-1.24.569-1.867.574-.271 1.15-.542 1.718-.814-1.764 5-2.72 10.406-2.545 15.715 1.156-.82 2.222-1.763 3.384-2.57.717-.317 1.59.716 2.17 1.014-1.789 2.273-3.048 3.326-6.02 3.688-.807 3.468-.593 7.04-1.265 10.515-.892 2.454-2.403 4.38-2.48 7.124 1.414 0 2.848-.039 4.25.09.458.802.287.858-.23 1.239-2.06.982-2.812-.135-4.532.298-.879 1.24-3.474 6.227-4.565 7.274-1.079 1.046-2.396 1.582-3.74 2.209.394-2.028 1.421-3.708 2.332-5.522 1.137-2.08.368-4.147.678-6.44l.891-.588c.142 1.085-.826 4.089.627 4.405.852-.962 1.724-1.996 2.306-3.152.2-1.634.006-3.32.245-4.954.375-1.117 1.143-2.144 1.757-3.145-.381-1.46-.866-2.836-.794-4.36.503-.414 1.02-.808 1.556-1.176.24-2.015.721-3.584 1.098-5.826.493-4.72.874-8.375.73-12.556-.407-1.066-1.402-1.957-2.093-2.861.769-.343 1.538-.692 2.313-1.014zm-274.65 1.853-2.417 9.651c-.222-1.63-1.53-4.817-2.577-5.941l-1.252.193c.433 1.363 1.49 2.164 2.285 3.365.75 2.423.013 5.011 1.434 7.04l1.74 4.755c.21 1.153.1 2.406.096 3.59-1.171-.891-4.844-3.604-6.589-6.207-.252-.536-.757-.606-1.52-.219.937 3.585 5.118 5.974 7.411 8.641 1.841 2.067 2.053 4.562 2.621 7.159.381 2.235 1.41 4.248 1.842 6.476-3.01-.807-4.503-2.997-6.867-4.734a6.292 6.292 0 0 0-2.072-.16c2.196 3.972 6.677 4.256 9.267 7.763 1.389 1.854 2.636 3.857 3.78 5.866 2.803 6.035 4.813 8.19 9.927 13.375 2.04 2.073 4.495 3.657 6.484 5.795.982.794 6.289 4.4 7.749 3.677.194-.911-5.43-3.594-5.96-4.175-5.87-5.09-11.354-10.838-15.662-17.317-1.692-2.635-3.669-5.936-3.617-9.152-1.152-5.307-.106-10.362 1.35-15.715-2.734 2.15-2.509 6.717-3.075 9.948-1.492-2.41-1.48-5.794-2.074-8.526-.385-2.446-.985-4.72-1.924-6.935-.316-2.562-.69-5.55-.957-7.932.56-3.667.893-8.755.576-10.28z"/>
<path d="M233.283 302.98c.569.821.82 1.738 1.092 2.681-.717.336-1.499.963-2.306.937-.64-1.557.316-2.487 1.214-3.617zm-1.983 4.147c1.273-.077.53 1.945.646 2.72-1.091.22-2.19.445-3.287.658.73-1.027 1.42-2.938 2.641-3.378zm-4.004 4.412c1.104-.233 2.28-.246 3.41-.29-1.001.981-2.093 1.808-3.268 2.576-.91 2.442-2.112 4.438-5.116 3.824-.161-.672.033-1.169.575-1.505 1.893-1.582 4.037-1.77 4.399-4.605zm115.842 4.754c1.02.245 1.292.936 1.815 1.744a76.17 76.17 0 0 1-1.718 0 26.287 26.287 0 0 1-.097-1.744zm-123.561 2.719c.562 1.634-1.305 1.647-2.396 1.699.575-1.234.743-2.074 2.396-1.699zm-3.158 1.848.394.652c-.66 1.647-3.546 1.77-5.045 1.944.691-1.634 3.049-2.338 4.65-2.597zm114.492 17.89c.64 2.145-2.203 2.016-3.507 2.203.407-1.427 2.028-2.687 3.507-2.202zm-2.603 2.688c-.426 1.498-1.518 3.016-2.693 4.01-1.04.517-1.46-.516-2.041-1.15 1.918-1.162 2.17-3.125 4.734-2.86zm-68.995 1.828c2.125.51 3.837 2.163 5.445 3.558 1.524 1.415 3.307 2.468 4.89 3.818-2.261.31-3.811-1.318-6.02-1.266-1.79.032-3.579.445-5.342.684.53-.665 1.718-1.356 1.86-2.228-.75-.388-1.621-.646-2.286-1.163.27-.652 1.175-1.014 1.692-1.485-.078-.64-.162-1.28-.24-1.918zm63.066 1.982c.742.35 2.099 1.066 1.479 2.06-.407 1.183-1.906.57-2.83.64.194-1.253-.258-2.377 1.35-2.7zm-166.604 2.002v1.984c-2.616.077-5.186.22-7.705.956a78.104 78.104 0 0 1 1.511 3.035c-1.809-.31-3.624-.872-5.451-.956-6.957.052-11.969 8.85-18.97 8.139 1.337-1.59 3.268-1.983 4.495-3.675 1.731-2.197 1.873-4.987 4.566-6.201-.077 1.06-.174 2.125-.277 3.184 3.81-.49 6.097-3.333 8.83-5.71 4.437 1.118 8.318-1.033 13.001-.755zm113.233.156c.594-.498 1.938-.117 1.35.794-.594.717-1.809.071-1.35-.794zm51.304 1.459c.252 1.13-.569.989-1.305 1.505-3.094 1.59-5.251 4.005-8.842 4.683-.35-.775-1.26-1.453-.381-2.235 2.066-1.007 4.204-1.589 6.013-3.087 1.35-1.22 2.835-.93 4.515-.866zm-63.776.575c1.15-.717 1.899 1.014.542 1.292-.768-.2-.95-.633-.542-1.292zm14.972.452c.84.64.872 1.454 1.098 2.41-1.014.019-2.01.013-3.004-.233.627-.736 1.247-1.473 1.906-2.177zm2.525 4.67c1.37-.161 2.035 2.06.652 2.41-1.007-.291-.923-1.622-.652-2.41zm1.834 2.313c.892-.524 1.731.478 2.39.988 1.234 1.188 2.48 2.383 3.585 3.688-.213 1.395-1.33 2.112-2.48 1.046-1.344-1.543-3.514-3.559-3.495-5.722z"/>
<path d="M396 4H4v199.84c5 149.88 80.001 239.81 196 291.77 117-53.957 192-143.89 196-291.77z" fill="none" stroke="#000" stroke-width="8"/>
</svg>
