<?xml version="1.0" encoding="UTF-8" standalone="no"?>
<svg
   xmlns:dc="http://purl.org/dc/elements/1.1/"
   xmlns:cc="http://creativecommons.org/ns#"
   xmlns:rdf="http://www.w3.org/1999/02/22-rdf-syntax-ns#"
   xmlns:svg="http://www.w3.org/2000/svg"
   xmlns="http://www.w3.org/2000/svg"
   xmlns:xlink="http://www.w3.org/1999/xlink"
   xmlns:sodipodi="http://sodipodi.sourceforge.net/DTD/sodipodi-0.dtd"
   xmlns:inkscape="http://www.inkscape.org/namespaces/inkscape"
   height="763"
   width="603"
   version="1.0"
   id="svg20"
   sodipodi:version="0.32"
   inkscape:version="0.46"
   sodipodi:docname="Jongny-coat_of_arms.svg"
   sodipodi:docbase="C:\Documents and Settings\Steve\Bureau\Blason Villages Suisse pour Wikipédia (par Delta-9)"
   inkscape:output_extension="org.inkscape.output.svg.inkscape">
  <metadata
     id="metadata31">
    <rdf:RDF>
      <cc:Work
         rdf:about="">
        <dc:format>image/svg+xml</dc:format>
        <dc:type
           rdf:resource="http://purl.org/dc/dcmitype/StillImage" />
        <dc:date>07-AUG-2006</dc:date>
        <dc:creator>
          <cc:Agent>
            <dc:title>Jérôme BLUM (wagner51)</dc:title>
          </cc:Agent>
        </dc:creator>
        <cc:license
           rdf:resource="http://creativecommons.org/licenses/GPL/2.0/" />
        <dc:coverage />
        <dc:description>Gabarit pour le Projet:Blasons de WIkipédia</dc:description>
        <dc:subject>
          <rdf:Bag>
            <rdf:li>blason suisse modèle gabarit projet blasons</rdf:li>
          </rdf:Bag>
        </dc:subject>
        <dc:language>fr</dc:language>
        <dc:title>Gabrit d'un blason suisse</dc:title>
      </cc:Work>
      <cc:License
         rdf:about="http://creativecommons.org/licenses/GPL/2.0/">
        <cc:permits
           rdf:resource="http://web.resource.org/cc/Reproduction" />
        <cc:permits
           rdf:resource="http://web.resource.org/cc/Distribution" />
        <cc:requires
           rdf:resource="http://web.resource.org/cc/Notice" />
        <cc:permits
           rdf:resource="http://web.resource.org/cc/DerivativeWorks" />
        <cc:requires
           rdf:resource="http://web.resource.org/cc/ShareAlike" />
        <cc:requires
           rdf:resource="http://web.resource.org/cc/SourceCode" />
      </cc:License>
    </rdf:RDF>
  </metadata>
  <defs
     id="defs29"><inkscape:perspective
   sodipodi:type="inkscape:persp3d"
   inkscape:vp_x="0 : 381.5 : 1"
   inkscape:vp_y="0 : 1000 : 0"
   inkscape:vp_z="603 : 381.5 : 1"
   inkscape:persp3d-origin="301.5 : 254.33333 : 1"
   id="perspective28" />
<linearGradient
   id="linearGradient2893">
  <stop
     style="stop-color:#ffffff;stop-opacity:0.3137255;"
     offset="0"
     id="stop2895" />
  <stop
     id="stop2897"
     offset="0.19"
     style="stop-color:#ffffff;stop-opacity:0.25098041;" />
  <stop
     style="stop-color:#6b6b6b;stop-opacity:0.1254902;"
     offset="0.60000002"
     id="stop2901" />
  <stop
     style="stop-color:#000000;stop-opacity:0.1254902;"
     offset="1"
     id="stop2899" />
</linearGradient>
<linearGradient
   id="linearGradient2955">
  <stop
     style="stop-color:white;stop-opacity:0;"
     offset="0"
     id="stop2965" />
  <stop
     style="stop-color:black;stop-opacity:0.64583331;"
     offset="1"
     id="stop2959" />
</linearGradient>
<radialGradient
   inkscape:collect="always"
   xlink:href="#linearGradient2893"
   id="radialGradient3236"
   gradientUnits="userSpaceOnUse"
   gradientTransform="matrix(1.215027,1.531577e-24,1.464684e-23,1.266667,-839.1924,-490.4894)"
   cx="858.04236"
   cy="579.93323"
   fx="858.04236"
   fy="579.93323"
   r="300" />
<inkscape:perspective
   id="perspective2563"
   inkscape:persp3d-origin="297.63751 : 280.63 : 1"
   inkscape:vp_z="595.27502 : 420.94501 : 1"
   inkscape:vp_y="0 : 1000 : 0"
   inkscape:vp_x="0 : 420.94501 : 1"
   sodipodi:type="inkscape:persp3d" />

	
	

	

		
		
	
		
		
		
	
			
			
			
		
			
			
			
				
			
			
			
			
		</defs>
  <sodipodi:namedview
     inkscape:window-height="909"
     inkscape:window-width="1231"
     inkscape:pageshadow="2"
     inkscape:pageopacity="0.0"
     guidetolerance="10.0"
     gridtolerance="10.0"
     objecttolerance="10.0"
     borderopacity="1.0"
     bordercolor="#666666"
     pagecolor="#ffffff"
     id="base"
     inkscape:zoom="0.68420476"
     inkscape:cx="290.38741"
     inkscape:cy="345.26377"
     inkscape:window-x="20"
     inkscape:window-y="42"
     inkscape:current-layer="layer2"
     showgrid="false"
     showguides="true"
     inkscape:guide-bbox="true">
    <sodipodi:guide
       orientation="horizontal"
       position="761.5"
       id="guide1885" />
    <sodipodi:guide
       orientation="vertical"
       position="1.5"
       id="guide1887" />
    <sodipodi:guide
       orientation="horizontal"
       position="1.5"
       id="guide1889" />
    <sodipodi:guide
       orientation="vertical"
       position="601.5"
       id="guide1891" />
    <sodipodi:guide
       orientation="vertical"
       position="301.50081"
       id="guide1893" />
  </sodipodi:namedview>
  <desc
     id="desc22">Coat of Arms of Canton of Freiburg (Fribourg)</desc>
  <g
     inkscape:groupmode="layer"
     id="layer1"
     inkscape:label="Fond écu"
     style="opacity:1"
     sodipodi:insensitive="true">
    <path
       id="path1899"
       d="M 1.5,1.49998 L 1.5,460.3679 C 1.5,626.6785 135.81456,761.5 301.49999,761.5 C 467.18543,761.5 601.5,626.6785 601.5,460.3679 L 601.5,1.49998 L 1.5,1.49998 z"
       style="fill:#2b5df2;fill-opacity:1" />
  </g>
  <g
     inkscape:groupmode="layer"
     id="layer2"
     inkscape:label="Meubles"
     style="opacity:1"
     sodipodi:insensitive="true">
    <path
       style="fill:#ffffff;stroke:#000000;stroke-width:3;stroke-linecap:round;stroke-linejoin:round"
       d="M 344.413,529.571 C 304.344,529.571 301.499,572.485 301.499,572.485 C 301.499,572.485 298.654,529.571 258.585,529.571 C 218.516,529.571 215.67,567.858 215.67,572.485 C 215.67,589.923 219.514,606.785 260.506,633.335 C 301.498,659.884 301.498,678.838 301.498,678.838 C 301.498,678.838 301.498,659.884 342.491,633.335 C 383.482,606.785 387.326,589.923 387.326,572.485 C 387.327,567.858 384.482,529.571 344.413,529.571 z"
       id="path2526" />
    <polygon
       style="fill:#ffffff;stroke:#000000;stroke-width:3;stroke-linecap:round;stroke-linejoin:round"
       points="127.516,71.632 148.545,136.355 216.6,136.355 161.543,176.356 182.573,241.08 127.516,201.079 72.459,241.08 93.489,176.356 38.432,136.355 106.486,136.355 127.516,71.632 "
       id="polygon2528"
       transform="translate(-3.8e-2,-4.5e-2)" />
    <polygon
       style="fill:#ffffff;stroke:#000000;stroke-width:3;stroke-linecap:round;stroke-linejoin:round"
       points="475.558,71.632 454.528,136.355 386.475,136.355 441.532,176.356 420.501,241.08 475.558,201.079 530.615,241.08 509.585,176.356 564.642,136.355 496.588,136.355 475.558,71.632 "
       id="polygon2530"
       transform="translate(-3.8e-2,-4.5e-2)" />
    <path
       id="path2536"
       d="M 301.499,418.386 C 268.691,418.386 221.72,423.367 163.718,444.719 C 163.718,444.719 220.793,472.83 301.499,472.83 C 382.204,472.83 439.28,444.719 439.28,444.719 C 381.277,423.367 334.307,418.386 301.499,418.386 z"
       style="fill:#ffffff;stroke:#000000;stroke-width:3;stroke-linecap:round;stroke-linejoin:round" />
    <path
       id="path2538"
       d="M 301.499,412.158 L 290.647,418.567 C 290.647,418.567 296.535,430.839 296.535,450.323 C 296.535,469.804 292.264,471.406 292.264,487.953 C 292.264,496.76 297.921,498.628 301.498,498.628 C 305.075,498.628 310.731,496.76 310.731,487.953 C 310.731,471.406 306.461,469.805 306.461,450.323 C 306.461,430.84 312.349,418.567 312.349,418.567 L 301.499,412.158 z"
       style="fill:#ffffff;stroke:#000000;stroke-width:3;stroke-linecap:round;stroke-linejoin:round" />
    <ellipse
       id="ellipse2540"
       ry="16.013"
       rx="22.259001"
       cy="443.42801"
       cx="301.53699"
       sodipodi:cx="301.53699"
       sodipodi:cy="443.42801"
       sodipodi:rx="22.259001"
       sodipodi:ry="16.013"
       style="fill:#ffffff;stroke:#000000;stroke-width:3;stroke-linecap:round;stroke-linejoin:round"
       transform="translate(-3.8e-2,-4.5e-2)" />
    <path
       id="path2542"
       d="M 301.499,378.887 C 347.134,378.887 381.071,388.268 416.507,399.703 L 416.507,399.526 C 394.088,363.23 386.615,342.591 379.499,319.106 C 372.383,295.62 369.039,258.256 369.039,246.514 C 369.039,212.318 338.801,184.597 301.499,184.597 C 264.198,184.597 233.959,212.317 233.959,246.514 C 233.959,258.256 230.616,295.62 223.499,319.106 C 216.382,342.591 208.91,363.23 186.491,399.526 L 186.491,399.703 C 221.927,388.268 255.864,378.887 301.499,378.887 z"
       style="fill:#ffffff;stroke:#000000;stroke-width:3;stroke-linecap:round;stroke-linejoin:round" />
    <path
       id="path2544"
       d="M 423.623,402.017 C 385.548,389.563 350.179,378.888 301.499,378.888 C 252.819,378.888 217.45,389.563 179.374,402.017 L 163.717,444.719 C 221.719,423.367 268.691,418.386 301.498,418.386 C 334.305,418.386 381.276,423.367 439.279,444.719 L 423.623,402.017 z"
       style="fill:#ffffff;stroke:#000000;stroke-width:3;stroke-linecap:round;stroke-linejoin:round" />
    <path
       id="path2546"
       d="M 301.499,184.598 C 316.05,184.598 329.513,188.83 340.539,196.005 C 336.334,183.904 320.457,174.901 301.499,174.901 C 282.542,174.901 266.665,183.903 262.459,196.005 C 273.485,188.83 286.949,184.598 301.499,184.598 z"
       style="fill:#ffffff;stroke:#000000;stroke-width:3" />
    <path
       id="path2548"
       d="M 273.466,182.723 C 276.189,180.902 279.286,179.345 282.674,178.11 C 276.883,171.807 275.147,167.629 275.147,163.405 C 275.147,156.822 279.556,152.374 283.456,152.374 C 287.356,152.374 292.68,154.865 292.68,163.405 C 292.68,169.451 290.783,173.979 289.673,176.115 C 293.412,175.326 297.382,174.9 301.499,174.9 C 305.616,174.9 309.585,175.326 313.324,176.115 C 312.214,173.978 310.317,169.45 310.317,163.405 C 310.317,154.865 315.64,152.374 319.541,152.374 C 323.442,152.374 327.851,156.822 327.851,163.405 C 327.851,167.629 326.114,171.806 320.323,178.11 C 323.711,179.345 326.809,180.902 329.531,182.723 C 337.462,177.731 343.792,168.315 343.792,158.78 C 343.792,156.289 342.266,147.748 332.938,141.343 C 323.616,134.941 311.556,142.342 311.544,142.349 C 310.329,137.719 306.298,134.315 301.499,134.315 C 296.7,134.315 292.669,137.72 291.454,142.35 C 291.451,142.348 279.386,134.939 270.06,141.343 C 260.734,147.748 259.207,156.289 259.207,158.78 C 259.208,168.315 265.536,177.731 273.466,182.723 z"
       style="fill:#ffffff;stroke:#000000;stroke-width:3" />
    <path
       id="path2552"
       d="M 366.186,228.683 C 349.122,221.413 326.419,216.979 301.499,216.979 C 276.576,216.979 253.872,221.414 236.806,228.686"
       style="fill:none;stroke:#000000;stroke-width:3;stroke-linecap:round;stroke-linejoin:round" />
    <path
       id="path2554"
       d="M 361.478,218.015 C 345.045,211.868 324.193,208.191 301.499,208.191 C 278.81,208.191 257.959,211.866 241.528,218.012"
       style="fill:none;stroke:#000000;stroke-width:3;stroke-linecap:round;stroke-linejoin:round" />
    <path
       id="path2556"
       d="M 352.915,206.368 C 338.052,201.957 320.414,199.403 301.499,199.403 C 282.583,199.403 264.945,201.958 250.081,206.368"
       style="fill:none;stroke:#000000;stroke-width:3;stroke-linecap:round;stroke-linejoin:round" />
  </g>
  <g
     inkscape:groupmode="layer"
     id="layer3"
     inkscape:label="Reflet final"
     style="display:inline"
     sodipodi:insensitive="true">
    <path
       style="fill:url(#radialGradient3236);fill-opacity:1"
       d="M 1.5,1.5 L 1.5,460.3679 C 1.5,626.67854 135.81454,761.5 301.49993,761.5 C 467.1854,761.5 601.5,626.67854 601.5,460.3679 L 601.5,1.5 L 1.5,1.5 z "
       id="path2346" />
  </g>
  <g
     inkscape:groupmode="layer"
     id="layer4"
     inkscape:label="Contour final"
     style="display:inline"
     sodipodi:insensitive="true">
    <path
       style="fill:none;fill-opacity:1;stroke:#000000;stroke-width:3;stroke-miterlimit:4;stroke-dasharray:none;stroke-opacity:1"
       d="M 1.5,1.5 L 1.5,460.36794 C 1.5,626.67854 135.81454,761.5 301.49993,761.5 C 467.1854,761.5 601.5,626.67854 601.5,460.36794 L 601.5,1.5 L 1.5,1.5 z "
       id="path3239" />
  </g>
</svg>
